<?xml version="1.0" encoding="iso-8859-1"?>
<!-- Generator: Adobe Illustrator 16.0.0, SVG Export Plug-In . SVG Version: 6.00 Build 0)  -->
<!DOCTYPE svg PUBLIC "-//W3C//DTD SVG 1.1//EN" "http://www.w3.org/Graphics/SVG/1.1/DTD/svg11.dtd">
<svg version="1.1" id="Capa_1" xmlns="http://www.w3.org/2000/svg" xmlns:xlink="http://www.w3.org/1999/xlink" x="0px" y="0px"
	 width="448.502px" height="448.502px" viewBox="0 0 448.502 448.502" style="enable-background:new 0 0 448.502 448.502;"
	 xml:space="preserve">
<g>
	<path d="M254.32,122.545c-0.58-0.454-0.92-1.138-0.92-1.872c0-0.736,0.34-1.425,0.92-1.866l57.816-44.452
		c0.422-0.326,0.931-0.487,1.434-0.487c0.504,0,1.001,0.156,1.425,0.471c0.841,0.637,1.158,1.765,0.765,2.75l-11.621,29.431
		l14.961,0.044c0,0,1.434,0.076,3.423,0.246l-0.005-0.246c1.264-0.027,30.199-0.342,50.413,19.488
		c12.433,12.192,18.736,28.813,18.736,49.388h-28.225c0-12.895-3.357-22.452-10.276-29.239
		c-9.844-9.658-24.332-11.155-28.744-11.374h-20.279l11.622,29.434c0.389,0.979,0.084,2.106-0.77,2.747
		c-0.845,0.638-2.016,0.638-2.858-0.01L254.32,122.545z M36.904,260.347h69.892v-25.631H36.904V260.347z M115.312,52.279
		c4.572,0,8.293-3.721,8.293-8.292s-3.721-8.288-8.293-8.288c-4.571,0-8.292,3.721-8.292,8.288S110.741,52.279,115.312,52.279z
		 M169.122,52.279c4.571,0,8.292-3.721,8.292-8.292s-3.722-8.288-8.292-8.288c-4.573,0-8.288,3.721-8.288,8.288
		S164.549,52.279,169.122,52.279z M187.685,187.633h-80.889v5.34H36.904v-25.631h150.781V187.633z M177.415,176.573h-20.638v7.16
		h20.638V176.573z M23.339,206.538H106.8v14.607H23.339v52.772H106.8v28.749H3.363V0h215.611v187.633h-17.713v-33.862H23.339
		V206.538z M147.256,43.987c0,12.052,9.806,21.858,21.861,21.858c12.052,0,21.863-9.806,21.863-21.858
		c0-12.055-9.807-21.861-21.863-21.861C157.056,22.126,147.256,31.932,147.256,43.987z M93.454,43.987
		c0,12.052,9.807,21.858,21.858,21.858c12.053,0,21.859-9.806,21.859-21.858c0-12.055-9.806-21.861-21.859-21.861
		C103.261,22.126,93.454,31.932,93.454,43.987z M23.339,138.217h177.916V85.451H23.339V138.217z M36.904,99.021h150.781v25.63
		H36.904V99.021z M156.776,114.477h20.638v-7.163h-20.638V114.477z M323.146,414.021v14.786c40.823,1.346,70.271,5.122,70.271,9.576
		c0,5.594-46.085,10.118-102.939,10.118c-56.857,0-102.946-4.524-102.946-10.118c0-4.006,23.78-7.451,58.191-9.084v-15.288H123.717
		V208.729h321.422v205.292H323.146z M424.028,396.429V224.57H144.831v171.858H424.028z"/>
</g>
<g>
</g>
<g>
</g>
<g>
</g>
<g>
</g>
<g>
</g>
<g>
</g>
<g>
</g>
<g>
</g>
<g>
</g>
<g>
</g>
<g>
</g>
<g>
</g>
<g>
</g>
<g>
</g>
<g>
</g>
</svg>
