<?xml version="1.0" encoding="UTF-8" standalone="no"?>
<svg
   xmlns:xhtml="http://www.w3.org/1999/xhtml"
   xmlns:dc="http://purl.org/dc/elements/1.1/"
   xmlns:cc="http://creativecommons.org/ns#"
   xmlns:rdf="http://www.w3.org/1999/02/22-rdf-syntax-ns#"
   xmlns:svg="http://www.w3.org/2000/svg"
   xmlns="http://www.w3.org/2000/svg"
   xmlns:sodipodi="http://sodipodi.sourceforge.net/DTD/sodipodi-0.dtd"
   xmlns:inkscape="http://www.inkscape.org/namespaces/inkscape"
   version="1.1"
   width="372"
   height="210"
   id="svg4613"
   inkscape:version="0.91 r13725"
   sodipodi:docname="card.svg">
  <metadata
     id="metadata5053">
    <rdf:RDF>
      <cc:Work
         rdf:about="">
        <dc:format>image/svg+xml</dc:format>
        <dc:type
           rdf:resource="http://purl.org/dc/dcmitype/StillImage" />
      </cc:Work>
    </rdf:RDF>
  </metadata>
  <sodipodi:namedview
     pagecolor="#ffffff"
     bordercolor="#666666"
     borderopacity="1"
     objecttolerance="10"
     gridtolerance="10"
     guidetolerance="10"
     inkscape:pageopacity="0"
     inkscape:pageshadow="2"
     inkscape:window-width="1676"
     inkscape:window-height="1005"
     id="namedview5051"
     showgrid="false"
     inkscape:zoom="2.1631385"
     inkscape:cx="137.83455"
     inkscape:cy="132.83429"
     inkscape:window-x="0"
     inkscape:window-y="1"
     inkscape:window-maximized="1"
     inkscape:current-layer="text5075" />
  <xhtml:style />
  <defs
     id="defs4615" />
  <g
     transform="translate(0,0)"
     id="g4617">
    <g
       id="g4619">
      <rect
         fill="#FFFFFF"
         stroke="none"
         x="0"
         y="0"
         width="372"
         height="210"
         id="rect4621" />
    </g>
    <g
       transform="translate(0.5,0.5) matrix(1,0,0,1,10,9.999999999999996)"
       id="g4623">
      <g
         id="g4625">
        <g
           transform="translate(0,0) scale(1.2,0.18)"
           id="g4627">
          <g
             id="g4629">
            <path
               fill="#FFFFFF"
               stroke="none"
               d="M 0 0 L 100 0 Q 100 0 100 0 L 100 100 Q 100 100 100 100 L 0 100 Q 0 100 0 100 L 0 0 Q 0 0 0 0 Z"
               id="path4631" />
            <g
               transform="scale(0.8333333333333334,5.555555555555555)"
               id="g4633">
              <path
                 fill="none"
                 stroke="none"
                 d="M 0 0 L 120 0 Q 120 0 120 0 L 120 18 Q 120 18 120 18 L 0 18 Q 0 18 0 18 L 0 0 Q 0 0 0 0 Z"
                 id="path4635" />
              <path
                 fill="none"
                 stroke="#000000"
                 d="M 0 0 M 0 0 L 120 0 Q 120 0 120 0 L 120 18 Q 120 18 120 18 L 0 18 Q 0 18 0 18 L 0 0 Q 0 0 0 0 Z"
                 stroke-miterlimit="10"
                 id="path4637" />
            </g>
          </g>
        </g>
      </g>
    </g>
    <g
       transform="matrix(1,0,0,1,12,12)"
       id="g4639">
      <g
         transform="translate(35,0) matrix(1,0,0,1,0,0) translate(-35,0)"
         id="g4641">
        <g
           id="g4643">
          <rect
             fill="rgb(0,0,0)"
             stroke="none"
             x="0"
             y="0"
             width="117"
             height="18"
             fill-opacity="0"
             id="rect4645" />
        </g>
      </g>
      <g
         transform="translate(35,0) matrix(1,0,0,1,0,0) translate(-35,0)"
         id="g4647">
        <g
           id="g4649">
          <rect
             fill="rgb(0,0,0)"
             stroke="none"
             x="0"
             y="0"
             width="117"
             height="14"
             fill-opacity="0"
             id="rect4651" />
        </g>
      </g>
      <g
         transform="translate(35,0) matrix(1,0,0,1,0,0) translate(-35,0)"
         id="g4653">
        <g
           id="g4655">
          <rect
             fill="rgb(0,0,0)"
             stroke="none"
             x="35"
             y="0"
             width="47"
             height="14"
             fill-opacity="0"
             id="rect4657" />
        </g>
        <text
           fill="rgb(0, 0, 0)"
           stroke="none"
           font-family="Arial"
           font-size="12px"
           font-style="normal"
           font-weight="normal"
           text-decoration=""
           line-height="14px"
           x="35"
           y="11"
           id="text4659">Individus</text>
      </g>
    </g>
    <g
       transform="translate(0.5,0.5) matrix(1,0,0,1,10,27.999999999999996)"
       id="g4661">
      <g
         id="g4663">
        <g
           transform="translate(0,0) scale(1.2,0.4200000000000001)"
           id="g4665">
          <g
             id="g4667">
            <path
               fill="#FFFFFF"
               stroke="none"
               d="M 0 0 L 100 0 Q 100 0 100 0 L 100 100 Q 100 100 100 100 L 0 100 Q 0 100 0 100 L 0 0 Q 0 0 0 0 Z"
               id="path4669" />
            <g
               transform="scale(0.8333333333333334,2.3809523809523805)"
               id="g4671">
              <path
                 fill="none"
                 stroke="none"
                 d="M 0 0 L 120 0 Q 120 0 120 0 L 120 42.00000000000001 Q 120 42.00000000000001 120 42.00000000000001 L 0 42.00000000000001 Q 0 42.00000000000001 0 42.00000000000001 L 0 0 Q 0 0 0 0 Z"
                 id="path4673" />
              <path
                 fill="none"
                 stroke="#000000"
                 d="M 0 0 M 0 0 L 120 0 Q 120 0 120 0 L 120 42.00000000000001 Q 120 42.00000000000001 120 42.00000000000001 L 0 42.00000000000001 Q 0 42.00000000000001 0 42.00000000000001 L 0 0 Q 0 0 0 0 Z"
                 stroke-miterlimit="10"
                 id="path4675" />
            </g>
          </g>
        </g>
      </g>
    </g>
    <g
       transform="matrix(1,0,0,1,12,30)"
       id="g4677">
      <g
         transform="translate(57,0) matrix(1,0,0,1,0,0) translate(-57,0)"
         id="g4679">
        <g
           id="g4681">
          <rect
             fill="rgb(0,0,0)"
             stroke="none"
             x="0"
             y="0"
             width="117"
             height="18"
             fill-opacity="0"
             id="rect4683" />
        </g>
      </g>
      <g
         transform="translate(57,0) matrix(1,0,0,1,0,0) translate(-57,0)"
         id="g4685">
        <g
           id="g4687">
          <rect
             fill="rgb(0,0,0)"
             stroke="none"
             x="0"
             y="0"
             width="117"
             height="14"
             fill-opacity="0"
             id="rect4689" />
        </g>
      </g>
      <g
         transform="translate(57,0) matrix(1,0,0,1,0,0) translate(-57,0)"
         id="g4691">
        <g
           id="g4693">
          <rect
             fill="rgb(0,0,0)"
             stroke="none"
             x="57"
             y="0"
             width="3"
             height="14"
             fill-opacity="0"
             id="rect4695" />
        </g>
      </g>
    </g>
    <g
       transform="translate(0.5,0.5) matrix(1,0,0,1,10,130)"
       id="g4697">
      <g
         id="g4699">
        <g
           transform="translate(0,0) scale(1.2,0.18)"
           id="g4701">
          <g
             id="g4703">
            <path
               fill="#FFFFFF"
               stroke="none"
               d="M 0 0 L 100 0 Q 100 0 100 0 L 100 100 Q 100 100 100 100 L 0 100 Q 0 100 0 100 L 0 0 Q 0 0 0 0 Z"
               id="path4705" />
            <g
               transform="scale(0.8333333333333334,5.555555555555555)"
               id="g4707">
              <path
                 fill="none"
                 stroke="none"
                 d="M 0 0 L 120 0 Q 120 0 120 0 L 120 18 Q 120 18 120 18 L 0 18 Q 0 18 0 18 L 0 0 Q 0 0 0 0 Z"
                 id="path4709" />
              <path
                 fill="none"
                 stroke="#000000"
                 d="M 0 0 M 0 0 L 120 0 Q 120 0 120 0 L 120 18 Q 120 18 120 18 L 0 18 Q 0 18 0 18 L 0 0 Q 0 0 0 0 Z"
                 stroke-miterlimit="10"
                 id="path4711" />
            </g>
          </g>
        </g>
      </g>
    </g>
    <g
       transform="matrix(1,0,0,1,12,132)"
       id="g4713">
      <g
         transform="translate(35,0) matrix(1,0,0,1,0,0) translate(-35,0)"
         id="g4715">
        <g
           id="g4717">
          <rect
             fill="rgb(0,0,0)"
             stroke="none"
             x="0"
             y="0"
             width="117"
             height="18"
             fill-opacity="0"
             id="rect4719" />
        </g>
      </g>
      <g
         transform="translate(35,0) matrix(1,0,0,1,0,0) translate(-35,0)"
         id="g4721">
        <g
           id="g4723">
          <rect
             fill="rgb(0,0,0)"
             stroke="none"
             x="0"
             y="0"
             width="117"
             height="14"
             fill-opacity="0"
             id="rect4725" />
        </g>
      </g>
      <g
         transform="translate(35,0) matrix(1,0,0,1,0,0) translate(-35,0)"
         id="g4727">
        <g
           id="g4729">
          <rect
             fill="rgb(0,0,0)"
             stroke="none"
             x="35"
             y="0"
             width="47"
             height="14"
             fill-opacity="0"
             id="rect4731" />
        </g>
        <text
           fill="rgb(0, 0, 0)"
           stroke="none"
           font-family="Arial"
           font-size="12px"
           font-style="normal"
           font-weight="normal"
           text-decoration=""
           line-height="14px"
           x="35"
           y="11"
           id="text4733">Individus</text>
      </g>
    </g>
    <g
       transform="translate(0.5,0.5) matrix(1,0,0,1,10,148)"
       id="g4735">
      <g
         id="g4737">
        <g
           transform="translate(0,0) scale(1.2,0.4200000000000001)"
           id="g4739">
          <g
             id="g4741">
            <path
               fill="#FFFFFF"
               stroke="none"
               d="M 0 0 L 100 0 Q 100 0 100 0 L 100 100 Q 100 100 100 100 L 0 100 Q 0 100 0 100 L 0 0 Q 0 0 0 0 Z"
               id="path4743" />
            <g
               transform="scale(0.8333333333333334,2.3809523809523805)"
               id="g4745">
              <path
                 fill="none"
                 stroke="none"
                 d="M 0 0 L 120 0 Q 120 0 120 0 L 120 42.00000000000001 Q 120 42.00000000000001 120 42.00000000000001 L 0 42.00000000000001 Q 0 42.00000000000001 0 42.00000000000001 L 0 0 Q 0 0 0 0 Z"
                 id="path4747" />
              <path
                 fill="none"
                 stroke="#000000"
                 d="M 0 0 M 0 0 L 120 0 Q 120 0 120 0 L 120 42.00000000000001 Q 120 42.00000000000001 120 42.00000000000001 L 0 42.00000000000001 Q 0 42.00000000000001 0 42.00000000000001 L 0 0 Q 0 0 0 0 Z"
                 stroke-miterlimit="10"
                 id="path4749" />
            </g>
          </g>
        </g>
      </g>
    </g>
    <g
       transform="matrix(1,0,0,1,12,150)"
       id="g4751">
      <g
         transform="translate(57,0) matrix(1,0,0,1,0,0) translate(-57,0)"
         id="g4753">
        <g
           id="g4755">
          <rect
             fill="rgb(0,0,0)"
             stroke="none"
             x="0"
             y="0"
             width="117"
             height="18"
             fill-opacity="0"
             id="rect4757" />
        </g>
      </g>
      <g
         transform="translate(57,0) matrix(1,0,0,1,0,0) translate(-57,0)"
         id="g4759">
        <g
           id="g4761">
          <rect
             fill="rgb(0,0,0)"
             stroke="none"
             x="0"
             y="0"
             width="117"
             height="14"
             fill-opacity="0"
             id="rect4763" />
        </g>
      </g>
      <g
         transform="translate(57,0) matrix(1,0,0,1,0,0) translate(-57,0)"
         id="g4765">
        <g
           id="g4767">
          <rect
             fill="rgb(0,0,0)"
             stroke="none"
             x="57"
             y="0"
             width="3"
             height="14"
             fill-opacity="0"
             id="rect4769" />
        </g>
      </g>
    </g>
    <g
       transform="translate(0.5,0.5) matrix(1,0,0,1,230,9.999999999999996)"
       id="g4771">
      <g
         id="g4773">
        <g
           transform="translate(0,0) scale(1.2,0.18)"
           id="g4775">
          <g
             id="g4777">
            <path
               fill="#FFFFFF"
               stroke="none"
               d="M 0 0 L 100 0 Q 100 0 100 0 L 100 100 Q 100 100 100 100 L 0 100 Q 0 100 0 100 L 0 0 Q 0 0 0 0 Z"
               id="path4779" />
            <g
               transform="scale(0.8333333333333334,5.555555555555555)"
               id="g4781">
              <path
                 fill="none"
                 stroke="none"
                 d="M 0 0 L 120 0 Q 120 0 120 0 L 120 18 Q 120 18 120 18 L 0 18 Q 0 18 0 18 L 0 0 Q 0 0 0 0 Z"
                 id="path4783" />
              <path
                 fill="none"
                 stroke="#000000"
                 d="M 0 0 M 0 0 L 120 0 Q 120 0 120 0 L 120 18 Q 120 18 120 18 L 0 18 Q 0 18 0 18 L 0 0 Q 0 0 0 0 Z"
                 stroke-miterlimit="10"
                 id="path4785" />
            </g>
          </g>
        </g>
      </g>
    </g>
    <g
       transform="translate(0.5,0.5) matrix(1,0,0,1,230,27.999999999999996)"
       id="g4787">
      <g
         id="g4789">
        <g
           transform="translate(0,0) scale(1.2,0.4200000000000001)"
           id="g4791">
          <g
             id="g4793">
            <path
               fill="#FFFFFF"
               stroke="none"
               d="M 0 0 L 100 0 Q 100 0 100 0 L 100 100 Q 100 100 100 100 L 0 100 Q 0 100 0 100 L 0 0 Q 0 0 0 0 Z"
               id="path4795" />
            <g
               transform="scale(0.8333333333333334,2.3809523809523805)"
               id="g4797">
              <path
                 fill="none"
                 stroke="none"
                 d="M 0 0 L 120 0 Q 120 0 120 0 L 120 42.00000000000001 Q 120 42.00000000000001 120 42.00000000000001 L 0 42.00000000000001 Q 0 42.00000000000001 0 42.00000000000001 L 0 0 Q 0 0 0 0 Z"
                 id="path4799" />
              <path
                 fill="none"
                 stroke="#000000"
                 d="M 0 0 M 0 0 L 120 0 Q 120 0 120 0 L 120 42.00000000000001 Q 120 42.00000000000001 120 42.00000000000001 L 0 42.00000000000001 Q 0 42.00000000000001 0 42.00000000000001 L 0 0 Q 0 0 0 0 Z"
                 stroke-miterlimit="10"
                 id="path4801" />
            </g>
          </g>
        </g>
      </g>
    </g>
    <g
       transform="matrix(1,0,0,1,232,12)"
       id="g4803">
      <g
         transform="translate(44,0) matrix(1,0,0,1,0,0) translate(-44,0)"
         id="g4805">
        <g
           id="g4807">
          <rect
             fill="rgb(0,0,0)"
             stroke="none"
             x="0"
             y="0"
             width="117"
             height="18"
             fill-opacity="0"
             id="rect4809" />
        </g>
      </g>
      <g
         transform="translate(44,0) matrix(1,0,0,1,0,0) translate(-44,0)"
         id="g4811">
        <g
           id="g4813">
          <rect
             fill="rgb(0,0,0)"
             stroke="none"
             x="0"
             y="0"
             width="117"
             height="14"
             fill-opacity="0"
             id="rect4815" />
        </g>
      </g>
      <g
         transform="translate(44,0) matrix(1,0,0,1,0,0) translate(-44,0)"
         id="g4817">
        <g
           id="g4819">
          <rect
             fill="rgb(0,0,0)"
             stroke="none"
             x="44"
             y="0"
             width="29"
             height="14"
             fill-opacity="0"
             id="rect4821" />
        </g>
        <text
           fill="rgb(0, 0, 0)"
           stroke="none"
           font-family="Arial"
           font-size="12px"
           font-style="normal"
           font-weight="normal"
           text-decoration=""
           line-height="14px"
           x="44"
           y="11"
           id="text4823">Traits</text>
      </g>
    </g>
    <g
       transform="matrix(1,0,0,1,232,30)"
       id="g4825">
      <g
         transform="translate(57,0) matrix(1,0,0,1,0,0) translate(-57,0)"
         id="g4827">
        <g
           id="g4829">
          <rect
             fill="rgb(0,0,0)"
             stroke="none"
             x="0"
             y="0"
             width="117"
             height="18"
             fill-opacity="0"
             id="rect4831" />
        </g>
      </g>
      <g
         transform="translate(57,0) matrix(1,0,0,1,0,0) translate(-57,0)"
         id="g4833">
        <g
           id="g4835">
          <rect
             fill="rgb(0,0,0)"
             stroke="none"
             x="0"
             y="0"
             width="117"
             height="14"
             fill-opacity="0"
             id="rect4837" />
        </g>
      </g>
      <g
         transform="translate(57,0) matrix(1,0,0,1,0,0) translate(-57,0)"
         id="g4839">
        <g
           id="g4841">
          <rect
             fill="rgb(0,0,0)"
             stroke="none"
             x="57"
             y="0"
             width="3"
             height="14"
             fill-opacity="0"
             id="rect4843" />
        </g>
      </g>
    </g>
    <g
       transform="translate(0.5,0.5) matrix(1,0,0,1,230,130)"
       id="g4845">
      <g
         id="g4847">
        <g
           transform="translate(0,0) scale(1.2,0.18)"
           id="g4849">
          <g
             id="g4851">
            <path
               fill="#FFFFFF"
               stroke="none"
               d="M 0 0 L 100 0 Q 100 0 100 0 L 100 100 Q 100 100 100 100 L 0 100 Q 0 100 0 100 L 0 0 Q 0 0 0 0 Z"
               id="path4853" />
            <g
               transform="scale(0.8333333333333334,5.555555555555555)"
               id="g4855">
              <path
                 fill="none"
                 stroke="none"
                 d="M 0 0 L 120 0 Q 120 0 120 0 L 120 18 Q 120 18 120 18 L 0 18 Q 0 18 0 18 L 0 0 Q 0 0 0 0 Z"
                 id="path4857" />
              <path
                 fill="none"
                 stroke="#000000"
                 d="M 0 0 M 0 0 L 120 0 Q 120 0 120 0 L 120 18 Q 120 18 120 18 L 0 18 Q 0 18 0 18 L 0 0 Q 0 0 0 0 Z"
                 stroke-miterlimit="10"
                 id="path4859" />
            </g>
          </g>
        </g>
      </g>
    </g>
    <g
       transform="translate(0.5,0.5) matrix(1,0,0,1,230,148)"
       id="g4861">
      <g
         id="g4863">
        <g
           transform="translate(0,0) scale(1.2,0.4200000000000001)"
           id="g4865">
          <g
             id="g4867">
            <path
               fill="#FFFFFF"
               stroke="none"
               d="M 0 0 L 100 0 Q 100 0 100 0 L 100 100 Q 100 100 100 100 L 0 100 Q 0 100 0 100 L 0 0 Q 0 0 0 0 Z"
               id="path4869" />
            <g
               transform="scale(0.8333333333333334,2.3809523809523805)"
               id="g4871">
              <path
                 fill="none"
                 stroke="none"
                 d="M 0 0 L 120 0 Q 120 0 120 0 L 120 42.00000000000001 Q 120 42.00000000000001 120 42.00000000000001 L 0 42.00000000000001 Q 0 42.00000000000001 0 42.00000000000001 L 0 0 Q 0 0 0 0 Z"
                 id="path4873" />
              <path
                 fill="none"
                 stroke="#000000"
                 d="M 0 0 M 0 0 L 120 0 Q 120 0 120 0 L 120 42.00000000000001 Q 120 42.00000000000001 120 42.00000000000001 L 0 42.00000000000001 Q 0 42.00000000000001 0 42.00000000000001 L 0 0 Q 0 0 0 0 Z"
                 stroke-miterlimit="10"
                 id="path4875" />
            </g>
          </g>
        </g>
      </g>
    </g>
    <g
       transform="matrix(1,0,0,1,232,132)"
       id="g4877">
      <g
         transform="translate(29,0) matrix(1,0,0,1,0,0) translate(-29,0)"
         id="g4879">
        <g
           id="g4881">
          <rect
             fill="rgb(0,0,0)"
             stroke="none"
             x="0"
             y="0"
             width="117"
             height="18"
             fill-opacity="0"
             id="rect4883" />
        </g>
      </g>
      <g
         transform="translate(29,0) matrix(1,0,0,1,0,0) translate(-29,0)"
         id="g4885">
        <g
           id="g4887">
          <rect
             fill="rgb(0,0,0)"
             stroke="none"
             x="0"
             y="0"
             width="117"
             height="14"
             fill-opacity="0"
             id="rect4889" />
        </g>
      </g>
      <g
         transform="translate(29,0) matrix(1,0,0,1,0,0) translate(-29,0)"
         id="g4891">
        <g
           id="g4893">
          <rect
             fill="rgb(0,0,0)"
             stroke="none"
             x="29"
             y="0"
             width="59"
             height="14"
             fill-opacity="0"
             id="rect4895" />
        </g>
        <text
           fill="rgb(0, 0, 0)"
           stroke="none"
           font-family="Arial"
           font-size="12px"
           font-style="normal"
           font-weight="normal"
           text-decoration=""
           line-height="14px"
           x="29"
           y="11"
           id="text4897">Taxonomie</text>
      </g>
    </g>
    <g
       transform="matrix(1,0,0,1,232,150)"
       id="g4899">
      <g
         transform="translate(57,0) matrix(1,0,0,1,0,0) translate(-57,0)"
         id="g4901">
        <g
           id="g4903">
          <rect
             fill="rgb(0,0,0)"
             stroke="none"
             x="0"
             y="0"
             width="117"
             height="18"
             fill-opacity="0"
             id="rect4905" />
        </g>
      </g>
      <g
         transform="translate(57,0) matrix(1,0,0,1,0,0) translate(-57,0)"
         id="g4907">
        <g
           id="g4909">
          <rect
             fill="rgb(0,0,0)"
             stroke="none"
             x="0"
             y="0"
             width="117"
             height="14"
             fill-opacity="0"
             id="rect4911" />
        </g>
      </g>
      <g
         transform="translate(57,0) matrix(1,0,0,1,0,0) translate(-57,0)"
         id="g4913">
        <g
           id="g4915">
          <rect
             fill="rgb(0,0,0)"
             stroke="none"
             x="57"
             y="0"
             width="3"
             height="14"
             fill-opacity="0"
             id="rect4917" />
        </g>
      </g>
    </g>
    <g
       transform="matrix(1,0,0,1,132,25)"
       id="g4919">
      <g
         transform="translate(20,0) matrix(1,0,0,1,0,0) translate(-20,0)"
         id="g4921">
        <g
           id="g4923">
          <rect
             fill="rgb(0,0,0)"
             stroke="none"
             x="0"
             y="0"
             width="27"
             height="24"
             fill-opacity="0"
             id="rect4925" />
        </g>
      </g>
      <g
         transform="translate(20,0) matrix(1,0,0,1,0,0) translate(-20,0)"
         id="g4927">
        <g
           id="g4929">
          <rect
             fill="rgb(0,0,0)"
             stroke="none"
             x="0"
             y="0"
             width="27"
             height="14"
             fill-opacity="0"
             id="rect4931" />
        </g>
      </g>
      <g
         transform="translate(20,0) matrix(1,0,0,1,0,0) translate(-20,0)"
         id="g4933">
        <g
           id="g4935">
          <rect
             fill="rgb(0,0,0)"
             stroke="none"
             x="10"
             y="0"
             width="7"
             height="14"
             fill-opacity="0"
             id="rect4937" />
        </g>
      </g>
      <g
         transform="translate(20,0) matrix(1,0,0,1,0,0) translate(-20,0)"
         id="g4939">
        <g
           id="g4941">
          <rect
             fill="rgb(0,0,0)"
             stroke="none"
             x="10"
             y="0"
             width="7"
             height="14"
             fill-opacity="0"
             id="rect4943" />
        </g>
        <text
           fill="rgb(0, 0, 0)"
           stroke="none"
           font-family="Arial"
           font-size="12px"
           font-style="normal"
           font-weight="normal"
           text-decoration=""
           line-height="14px"
           x="10"
           y="11"
           id="text4945">1</text>
      </g>
    </g>
    <g
       transform="matrix(1,0,0,1,184,25)"
       id="g4947">
      <g
         transform="translate(50,0) matrix(1,0,0,1,0,0) translate(-50,0)"
         id="g4949">
        <g
           id="g4951">
          <rect
             fill="rgb(0,0,0)"
             stroke="none"
             x="0"
             y="0"
             width="57"
             height="23"
             fill-opacity="0"
             id="rect4953" />
        </g>
      </g>
      <g
         transform="translate(50,0) matrix(1,0,0,1,0,0) translate(-50,0)"
         id="g4955">
        <g
           id="g4957">
          <rect
             fill="rgb(0,0,0)"
             stroke="none"
             x="0"
             y="0"
             width="57"
             height="14"
             fill-opacity="0"
             id="rect4959" />
        </g>
      </g>
      <g
         transform="translate(50,0) matrix(1,0,0,1,0,0) translate(-50,0)"
         id="g4961">
        <g
           id="g4963">
          <rect
             fill="rgb(0,0,0)"
             stroke="none"
             x="25"
             y="0"
             width="7"
             height="14"
             fill-opacity="0"
             id="rect4965" />
        </g>
      </g>
      <g
         transform="translate(50,0) matrix(1,0,0,1,0,0) translate(-50,0)"
         id="g4967">
        <g
           id="g4969">
          <rect
             fill="rgb(0,0,0)"
             stroke="none"
             x="25"
             y="0"
             width="7"
             height="14"
             fill-opacity="0"
             id="rect4971" />
        </g>
        <text
           fill="rgb(0, 0, 0)"
           stroke="none"
           font-family="Arial"
           font-size="12px"
           font-style="normal"
           font-weight="normal"
           text-decoration=""
           line-height="14px"
           x="25"
           y="11"
           id="text4973">n</text>
      </g>
    </g>
    <g
       transform="matrix(1,0,0,1,125.5,35.5)"
       id="g4975">
      <g
         transform="translate(0,0)"
         id="g4977">
        <g
           transform="translate(-129,-40) translate(3.5,4.5) matrix(1,0,0,1,0,0)"
           id="g4979">
          <g
             id="g4981">
            <path
               fill="none"
               stroke="#000000"
               d="M 130 40 L 153.33333333333331 40 Q 163.33333333333331 40 173.33333333333331 40 L 186.66666666666666 40 Q 196.66666666666666 40 206.66666666666666 40 L 230 40"
               stroke-miterlimit="10"
               stroke-width="2"
               id="path4983" />
          </g>
        </g>
      </g>
    </g>
    <g
       transform="matrix(1,0,0,1,125.5,155.5)"
       id="g4985">
      <g
         transform="translate(0,0)"
         id="g4987">
        <g
           transform="translate(-231,-165) translate(105.5,9.5) matrix(1,0,0,1,0,0)"
           id="g4989">
          <g
             id="g4991">
            <path
               fill="none"
               stroke="#000000"
               d="M 230 160 L 206.66666666666669 160 Q 196.66666666666669 160 186.66666666666669 160 L 173.33333333333334 160 Q 163.33333333333334 160 153.33333333333334 160 L 130 160"
               stroke-miterlimit="10"
               stroke-width="2"
               id="path4993" />
          </g>
        </g>
      </g>
    </g>
    <g
       transform="matrix(1,0,0,1,72,142)"
       id="g4995">
      <g
         transform="translate(140,0) matrix(1,0,0,1,0,0) translate(-140,0)"
         id="g4997">
        <g
           id="g4999">
          <rect
             fill="rgb(0,0,0)"
             stroke="none"
             x="0"
             y="0"
             width="147"
             height="14"
             fill-opacity="0"
             id="rect5001" />
        </g>
      </g>
      <g
         transform="translate(140,0) matrix(1,0,0,1,0,0) translate(-140,0)"
         id="g5003">
        <g
           id="g5005">
          <rect
             fill="rgb(0,0,0)"
             stroke="none"
             x="0"
             y="0"
             width="147"
             height="14"
             fill-opacity="0"
             id="rect5007" />
        </g>
      </g>
      <g
         transform="translate(140,0) matrix(1,0,0,1,0,0) translate(-140,0)"
         id="g5009">
        <g
           id="g5011">
          <rect
             fill="rgb(0,0,0)"
             stroke="none"
             x="70"
             y="0"
             width="7"
             height="14"
             fill-opacity="0"
             id="rect5013" />
        </g>
      </g>
      <g
         transform="translate(140,0) matrix(1,0,0,1,0,0) translate(-140,0)"
         id="g5015">
        <g
           id="g5017">
          <rect
             fill="rgb(0,0,0)"
             stroke="none"
             x="70"
             y="0"
             width="7"
             height="14"
             fill-opacity="0"
             id="rect5019" />
        </g>
        <text
           fill="rgb(0, 0, 0)"
           stroke="none"
           font-family="Arial"
           font-size="12px"
           font-style="normal"
           font-weight="normal"
           text-decoration=""
           line-height="14px"
           x="70"
           y="11"
           id="text5021">1</text>
      </g>
    </g>
    <g
       transform="matrix(1,0,0,1,142,142)"
       id="g5023">
      <g
         transform="translate(140,0) matrix(1,0,0,1,0,0) translate(-140,0)"
         id="g5025">
        <g
           id="g5027">
          <rect
             fill="rgb(0,0,0)"
             stroke="none"
             x="0"
             y="0"
             width="147"
             height="14"
             fill-opacity="0"
             id="rect5029" />
        </g>
      </g>
      <g
         transform="translate(140,0) matrix(1,0,0,1,0,0) translate(-140,0)"
         id="g5031">
        <g
           id="g5033">
          <rect
             fill="rgb(0,0,0)"
             stroke="none"
             x="0"
             y="0"
             width="147"
             height="14"
             fill-opacity="0"
             id="rect5035" />
        </g>
      </g>
      <g
         transform="translate(140,0) matrix(1,0,0,1,0,0) translate(-140,0)"
         id="g5037">
        <g
           id="g5039">
          <rect
             fill="rgb(0,0,0)"
             stroke="none"
             x="70"
             y="0"
             width="7"
             height="14"
             fill-opacity="0"
             id="rect5041" />
        </g>
      </g>
      <g
         transform="translate(140,0) matrix(1,0,0,1,0,0) translate(-140,0)"
         id="g5043">
        <g
           id="g5045">
          <rect
             fill="rgb(0,0,0)"
             stroke="none"
             x="70"
             y="0"
             width="7"
             height="14"
             fill-opacity="0"
             id="rect5047" />
        </g>
        <text
           fill="rgb(0, 0, 0)"
           stroke="none"
           font-family="Arial"
           font-size="12px"
           font-style="normal"
           font-weight="normal"
           text-decoration=""
           line-height="14px"
           x="70"
           y="11"
           id="text5049">1</text>
      </g>
    </g>
  </g>
  <rect
     style="opacity:1;fill:#8dd35f;fill-opacity:1;stroke:none;stroke-width:15;stroke-miterlimit:4;stroke-dasharray:none;stroke-dashoffset:0;stroke-opacity:1"
     id="rect5055"
     width="119.31459"
     height="7.1915641"
     x="10.787346"
     y="-36.094902"
     transform="scale(1,-1)" />
  <rect
     y="29.057997"
     x="230.94728"
     height="7.1915641"
     width="118.82426"
     id="rect5057"
     style="opacity:1;fill:#8dd35f;fill-opacity:1;stroke:none;stroke-width:15;stroke-miterlimit:4;stroke-dasharray:none;stroke-dashoffset:0;stroke-opacity:1" />
  <rect
     style="opacity:1;fill:#8dd35f;fill-opacity:1;stroke:none;stroke-width:15;stroke-miterlimit:4;stroke-dasharray:none;stroke-dashoffset:0;stroke-opacity:1"
     id="rect5059"
     width="118.66081"
     height="7.1915641"
     x="231.11072"
     y="37.845345" />
  <rect
     y="46.335678"
     x="231.11072"
     height="7.1915641"
     width="118.66081"
     id="rect5061"
     style="opacity:1;fill:#8dd35f;fill-opacity:1;stroke:none;stroke-width:15;stroke-miterlimit:4;stroke-dasharray:none;stroke-dashoffset:0;stroke-opacity:1" />
  <rect
     transform="scale(1,-1)"
     y="-156.09914"
     x="10.787346"
     height="7.1915641"
     width="119.31459"
     id="rect5063"
     style="opacity:1;fill:#8dd35f;fill-opacity:1;stroke:none;stroke-width:15;stroke-miterlimit:4;stroke-dasharray:none;stroke-dashoffset:0;stroke-opacity:1" />
  <rect
     style="opacity:1;fill:#8dd35f;fill-opacity:1;stroke:none;stroke-width:15;stroke-miterlimit:4;stroke-dasharray:none;stroke-dashoffset:0;stroke-opacity:1"
     id="rect5065"
     width="119.31459"
     height="7.1915641"
     x="231.11072"
     y="-168.52092"
     transform="scale(1,-1)" />
  <rect
     style="opacity:1;fill:#ffffff;fill-opacity:1;stroke:none;stroke-width:15;stroke-miterlimit:4;stroke-dasharray:none;stroke-dashoffset:0;stroke-opacity:1"
     id="rect5071"
     width="114.64823"
     height="12.019572"
     x="12.481864"
     y="12.601635" />
  <rect
     style="opacity:1;fill:#ffffff;fill-opacity:1;stroke:none;stroke-width:15;stroke-miterlimit:4;stroke-dasharray:none;stroke-dashoffset:0;stroke-opacity:1"
     id="rect5073"
     width="112.79906"
     height="11.557281"
     x="233.91937"
     y="13.526217" />
  <g
     style="font-style:normal;font-weight:normal;font-size:11.65622711px;line-height:125%;font-family:sans-serif;letter-spacing:0px;word-spacing:0px;fill:#000000;fill-opacity:1;stroke:none;stroke-width:1px;stroke-linecap:butt;stroke-linejoin:miter;stroke-opacity:1"
     id="text5075">
    <path
       d="m 61.037535,22.928415 0,-8.343764 1.104154,0 0,7.359132 4.109276,0 0,0.984632 -5.21343,0 z"
       style="font-style:normal;font-variant:normal;font-weight:normal;font-stretch:normal;font-family:Arial;-inkscape-font-specification:Arial"
       id="path5099" />
    <path
       d="m 71.361947,22.182827 q -0.569152,0.483779 -1.098463,0.682982 -0.52362,0.199203 -1.12692,0.199203 -0.996016,0 -1.531018,-0.483779 -0.535003,-0.489471 -0.535003,-1.246443 0,-0.443938 0.199203,-0.808195 0.204895,-0.369949 0.529311,-0.591918 0.330108,-0.221969 0.739897,-0.335799 0.301651,-0.07968 0.910643,-0.153671 1.240751,-0.14798 1.826977,-0.352874 0.0057,-0.210586 0.0057,-0.267502 0,-0.626066 -0.290268,-0.882185 -0.392714,-0.347182 -1.166761,-0.347182 -0.722822,0 -1.070005,0.256118 -0.341491,0.250427 -0.506545,0.893568 L 67.24698,18.608554 q 0.136596,-0.643142 0.44963,-1.035856 0.313033,-0.398407 0.904951,-0.608993 0.591918,-0.216277 1.371656,-0.216277 0.774046,0 1.257825,0.182128 0.483779,0.182129 0.71144,0.461013 0.22766,0.273193 0.318725,0.694365 0.05122,0.26181 0.05122,0.944792 l 0,1.365964 q 0,1.428571 0.06261,1.809903 0.0683,0.37564 0.26181,0.722822 l -1.070006,0 Q 71.407479,22.60969 71.361947,22.182827 Z m -0.08537,-2.28799 q -0.557769,0.22766 -1.673306,0.387023 -0.631758,0.09106 -0.893568,0.204894 -0.26181,0.113831 -0.404098,0.3358 -0.142288,0.216278 -0.142288,0.483779 0,0.409789 0.307342,0.682982 0.313034,0.273193 0.910643,0.273193 0.591918,0 1.052931,-0.256118 0.461012,-0.26181 0.67729,-0.71144 0.165054,-0.347183 0.165054,-1.024473 l 0,-0.37564 z"
       style="font-style:normal;font-variant:normal;font-weight:normal;font-stretch:normal;font-family:Arial;-inkscape-font-specification:Arial"
       id="path5101" />
    <path
       d="m 77.82751,20.714415 1.007399,0.130905 q -0.165054,1.041548 -0.848036,1.633465 -0.677291,0.586227 -1.667615,0.586227 -1.240751,0 -1.997722,-0.808196 -0.751281,-0.813887 -0.751281,-2.32783 0,-0.978941 0.324417,-1.713147 0.324416,-0.734206 0.984632,-1.098463 0.665908,-0.369948 1.445646,-0.369948 0.984632,0 1.610699,0.500853 0.626067,0.495162 0.802504,1.411496 l -0.996016,0.153671 q -0.142288,-0.608992 -0.506545,-0.916334 -0.358565,-0.307342 -0.870802,-0.307342 -0.774046,0 -1.257825,0.557769 -0.483779,0.552077 -0.483779,1.752987 0,1.217985 0.466704,1.770062 0.466705,0.552077 1.217985,0.552077 0.603301,0 1.007399,-0.369948 0.404097,-0.369949 0.512236,-1.138304 z"
       style="font-style:normal;font-variant:normal;font-weight:normal;font-stretch:normal;font-family:Arial;-inkscape-font-specification:Arial"
       id="path5103" />
  </g>
  <g
     style="font-style:normal;font-weight:normal;font-size:11.65622711px;line-height:125%;font-family:sans-serif;letter-spacing:0px;word-spacing:0px;fill:#000000;fill-opacity:1;stroke:none;stroke-width:1px;stroke-linecap:butt;stroke-linejoin:miter;stroke-opacity:1"
     id="text5079">
    <path
       d="m 273.28454,23.852999 0,-8.343764 3.14741,0 q 0.83096,0 1.26921,0.07968 0.61469,0.102447 1.03017,0.392715 0.41548,0.284575 0.6659,0.802503 0.25612,0.517929 0.25612,1.138304 0,1.064314 -0.67729,1.804211 -0.67729,0.734206 -2.44735,0.734206 l -2.14001,0 0,3.392144 -1.10416,0 z m 1.10416,-4.376777 2.15708,0 q 1.07001,0 1.51964,-0.398406 0.44963,-0.398406 0.44963,-1.121229 0,-0.52362 -0.2675,-0.893568 -0.26181,-0.37564 -0.69437,-0.495162 -0.27888,-0.07399 -1.03016,-0.07399 l -2.13432,0 0,2.982355 z"
       style="font-style:normal;font-variant:normal;font-weight:normal;font-stretch:normal;font-family:Arial;-inkscape-font-specification:Arial"
       id="path5084" />
    <path
       d="m 280.53554,20.830803 q 0,-1.678997 0.93341,-2.487193 0.77973,-0.671599 1.90096,-0.671599 1.24644,0 2.03757,0.819579 0.79112,0.813887 0.79112,2.25384 0,1.166761 -0.35288,1.83836 -0.34718,0.665908 -1.01878,1.035857 -0.66591,0.369948 -1.45703,0.369948 -1.26921,0 -2.05464,-0.813887 -0.77973,-0.813887 -0.77973,-2.344905 z m 1.05293,0 q 0,1.16107 0.50654,1.741604 0.50655,0.574844 1.2749,0.574844 0.76267,0 1.26921,-0.580535 0.50655,-0.580535 0.50655,-1.770062 0,-1.121229 -0.51224,-1.696072 -0.50655,-0.580535 -1.26352,-0.580535 -0.76835,0 -1.2749,0.574843 -0.50654,0.574844 -0.50654,1.735913 z"
       style="font-style:normal;font-variant:normal;font-weight:normal;font-stretch:normal;font-family:Arial;-inkscape-font-specification:Arial"
       id="path5086" />
    <path
       d="m 287.41089,16.687379 0,-1.178144 1.02447,0 0,1.178144 -1.02447,0 z m 0,7.16562 0,-6.044391 1.02447,0 0,6.044391 -1.02447,0 z"
       style="font-style:normal;font-variant:normal;font-weight:normal;font-stretch:normal;font-family:Arial;-inkscape-font-specification:Arial"
       id="path5088" />
    <path
       d="m 289.59074,22.048788 1.01309,-0.159363 q 0.0854,0.608993 0.4724,0.933409 0.39271,0.324417 1.09277,0.324417 0.70575,0 1.04724,-0.284576 0.34149,-0.290268 0.34149,-0.677291 0,-0.347182 -0.30165,-0.546385 -0.21059,-0.136597 -1.04724,-0.347183 -1.12692,-0.284576 -1.56517,-0.48947 -0.43255,-0.210587 -0.66021,-0.574844 -0.22197,-0.369948 -0.22197,-0.813887 0,-0.404097 0.18213,-0.745588 0.18782,-0.347183 0.50654,-0.574844 0.23904,-0.176437 0.64883,-0.295959 0.41548,-0.125213 0.88788,-0.125213 0.71144,0 1.24644,0.204895 0.5407,0.204894 0.79681,0.557768 0.25612,0.347183 0.35288,0.933409 l -1.00171,0.136597 q -0.0683,-0.466705 -0.3984,-0.728515 -0.32442,-0.261809 -0.92203,-0.261809 -0.70575,0 -1.0074,0.233352 -0.30165,0.233352 -0.30165,0.546386 0,0.199203 0.12521,0.358565 0.12522,0.165054 0.39272,0.273193 0.15367,0.05692 0.90495,0.26181 1.08708,0.290267 1.51394,0.478087 0.43256,0.182129 0.67729,0.535003 0.24474,0.352874 0.24474,0.876493 0,0.512237 -0.30165,0.967558 -0.29596,0.44963 -0.85942,0.700057 -0.56346,0.244735 -1.2749,0.244735 -1.17814,0 -1.79852,-0.48947 -0.61468,-0.489471 -0.78543,-1.451337 z"
       style="font-style:normal;font-variant:normal;font-weight:normal;font-stretch:normal;font-family:Arial;-inkscape-font-specification:Arial"
       id="path5090" />
    <path
       d="m 295.41885,22.048788 1.0131,-0.159363 q 0.0854,0.608993 0.47239,0.933409 0.39272,0.324417 1.09277,0.324417 0.70575,0 1.04724,-0.284576 0.34149,-0.290268 0.34149,-0.677291 0,-0.347182 -0.30165,-0.546385 -0.21058,-0.136597 -1.04724,-0.347183 -1.12692,-0.284576 -1.56516,-0.48947 -0.43256,-0.210587 -0.66022,-0.574844 -0.22197,-0.369948 -0.22197,-0.813887 0,-0.404097 0.18213,-0.745588 0.18782,-0.347183 0.50654,-0.574844 0.23905,-0.176437 0.64884,-0.295959 0.41548,-0.125213 0.88787,-0.125213 0.71144,0 1.24645,0.204895 0.54069,0.204894 0.79681,0.557768 0.25612,0.347183 0.35287,0.933409 l -1.0017,0.136597 q -0.0683,-0.466705 -0.39841,-0.728515 -0.32442,-0.261809 -0.92203,-0.261809 -0.70574,0 -1.0074,0.233352 -0.30165,0.233352 -0.30165,0.546386 0,0.199203 0.12522,0.358565 0.12521,0.165054 0.39271,0.273193 0.15367,0.05692 0.90495,0.26181 1.08708,0.290267 1.51395,0.478087 0.43255,0.182129 0.67729,0.535003 0.24473,0.352874 0.24473,0.876493 0,0.512237 -0.30165,0.967558 -0.29596,0.44963 -0.85942,0.700057 -0.56346,0.244735 -1.2749,0.244735 -1.17814,0 -1.79852,-0.48947 -0.61468,-0.489471 -0.78543,-1.451337 z"
       style="font-style:normal;font-variant:normal;font-weight:normal;font-stretch:normal;font-family:Arial;-inkscape-font-specification:Arial"
       id="path5092" />
    <path
       d="m 301.27543,20.830803 q 0,-1.678997 0.9334,-2.487193 0.77974,-0.671599 1.90097,-0.671599 1.24644,0 2.03756,0.819579 0.79113,0.813887 0.79113,2.25384 0,1.166761 -0.35288,1.83836 -0.34718,0.665908 -1.01878,1.035857 -0.66591,0.369948 -1.45703,0.369948 -1.26921,0 -2.05464,-0.813887 -0.77973,-0.813887 -0.77973,-2.344905 z m 1.05293,0 q 0,1.16107 0.50654,1.741604 0.50655,0.574844 1.2749,0.574844 0.76266,0 1.26921,-0.580535 0.50654,-0.580535 0.50654,-1.770062 0,-1.121229 -0.51223,-1.696072 -0.50655,-0.580535 -1.26352,-0.580535 -0.76835,0 -1.2749,0.574843 -0.50654,0.574844 -0.50654,1.735913 z"
       style="font-style:normal;font-variant:normal;font-weight:normal;font-stretch:normal;font-family:Arial;-inkscape-font-specification:Arial"
       id="path5094" />
    <path
       d="m 308.14509,23.852999 0,-6.044391 0.92202,0 0,0.859419 q 0.66591,-0.996016 1.92374,-0.996016 0.54638,0 1.0017,0.199203 0.46102,0.193512 0.68868,0.512237 0.22766,0.318725 0.31872,0.756972 0.0569,0.284575 0.0569,0.996015 l 0,3.716561 -1.02448,0 0,-3.67672 q 0,-0.626067 -0.11952,-0.933409 -0.11952,-0.313034 -0.42686,-0.495162 -0.30165,-0.18782 -0.71144,-0.18782 -0.65453,0 -1.13261,0.415481 -0.4724,0.41548 -0.4724,1.57655 l 0,3.30108 -1.02447,0 z"
       style="font-style:normal;font-variant:normal;font-weight:normal;font-stretch:normal;font-family:Arial;-inkscape-font-specification:Arial"
       id="path5096" />
  </g>
</svg>
