<?xml version="1.0" encoding="UTF-8" standalone="no"?>
<svg
   xmlns:xhtml="http://www.w3.org/1999/xhtml"
   xmlns:dc="http://purl.org/dc/elements/1.1/"
   xmlns:cc="http://creativecommons.org/ns#"
   xmlns:rdf="http://www.w3.org/1999/02/22-rdf-syntax-ns#"
   xmlns:svg="http://www.w3.org/2000/svg"
   xmlns="http://www.w3.org/2000/svg"
   xmlns:sodipodi="http://sodipodi.sourceforge.net/DTD/sodipodi-0.dtd"
   xmlns:inkscape="http://www.inkscape.org/namespaces/inkscape"
   version="1.1"
   width="372"
   height="210"
   id="svg4613"
   inkscape:version="0.91 r13725"
   sodipodi:docname="keys_1.svg">
  <metadata
     id="metadata5053">
    <rdf:RDF>
      <cc:Work
         rdf:about="">
        <dc:format>image/svg+xml</dc:format>
        <dc:type
           rdf:resource="http://purl.org/dc/dcmitype/StillImage" />
        <dc:title></dc:title>
      </cc:Work>
    </rdf:RDF>
  </metadata>
  <sodipodi:namedview
     pagecolor="#ffffff"
     bordercolor="#666666"
     borderopacity="1"
     objecttolerance="10"
     gridtolerance="10"
     guidetolerance="10"
     inkscape:pageopacity="0"
     inkscape:pageshadow="2"
     inkscape:window-width="1676"
     inkscape:window-height="1005"
     id="namedview5051"
     showgrid="false"
     inkscape:zoom="1.5295699"
     inkscape:cx="137.83455"
     inkscape:cy="3.5166852"
     inkscape:window-x="0"
     inkscape:window-y="1"
     inkscape:window-maximized="1"
     inkscape:current-layer="g4617" />
  <xhtml:style />
  <defs
     id="defs4615" />
  <g
     transform="translate(0,0)"
     id="g4617">
    <g
       transform="translate(0.5,0.5) matrix(1,0,0,1,10,9.999999999999996)"
       id="g4623">
      <g
         id="g4625">
        <g
           transform="translate(0,0) scale(1.2,0.18)"
           id="g4627">
          <g
             id="g4629">
            <path
               d="M 0 0 L 100 0 Q 100 0 100 0 L 100 100 Q 100 100 100 100 L 0 100 Q 0 100 0 100 L 0 0 Q 0 0 0 0 Z"
               id="path4631"
               stroke="none"
               fill="#FFFFFF" />
            <g
               transform="scale(0.8333333333333334,5.555555555555555)"
               id="g4633">
              <path
                 d="M 0 0 L 120 0 Q 120 0 120 0 L 120 18 Q 120 18 120 18 L 0 18 Q 0 18 0 18 L 0 0 Q 0 0 0 0 Z"
                 id="path4635"
                 stroke="none"
                 fill="none" />
              <path
                 d="M 0 0 M 0 0 L 120 0 Q 120 0 120 0 L 120 18 Q 120 18 120 18 L 0 18 Q 0 18 0 18 L 0 0 Q 0 0 0 0 Z"
                 stroke-miterlimit="10"
                 id="path4637"
                 stroke="#000000"
                 fill="none" />
            </g>
          </g>
        </g>
      </g>
    </g>
    <g
       transform="matrix(1,0,0,1,12,12)"
       id="g4639">
      <g
         id="g4641"
         transform="translate(35,0) matrix(1,0,0,1,0,0) translate(-35,0)">
        <g
           id="g4643">
          <path
             style="fill:#000000;fill-opacity:0;stroke:none"
             d="M 0,0 117,0 117,18 0,18 Z"
             id="rect4645" />
        </g>
      </g>
      <g
         id="g4647"
         transform="translate(35,0) matrix(1,0,0,1,0,0) translate(-35,0)">
        <g
           id="g4649">
          <path
             style="fill:#000000;fill-opacity:0;stroke:none"
             d="M 0,0 117,0 117,14 0,14 Z"
             id="rect4651" />
        </g>
      </g>
      <g
         id="g4653"
         transform="translate(35,0) matrix(1,0,0,1,0,0) translate(-35,0)">
        <g
           id="g4655">
          <path
             style="fill:#000000;fill-opacity:0;stroke:none"
             d="m 35,0 47,0 0,14 -47,0 z"
             id="rect4657" />
        </g>
        <g
           style="font-style:normal;font-weight:normal;font-size:12px;line-height:14px;font-family:Arial;fill:#000000;stroke:none"
           id="text4659">
          <path
             d="m 36.119141,11 0,-8.5898437 1.136718,0 0,8.5898437 -1.136718,0 z"
             style="font-style:normal;font-weight:normal;font-size:12px;line-height:14px;font-family:Arial;fill:#000000;stroke:none"
             id="path5515" />
          <path
             d="m 39.142578,11 0,-6.2226563 0.949219,0 0,0.8847657 q 0.685547,-1.0253907 1.980469,-1.0253907 0.5625,0 1.03125,0.2050782 0.474609,0.1992187 0.708984,0.5273437 0.234375,0.328125 0.328125,0.7792969 0.05859,0.2929687 0.05859,1.0253906 l 0,3.8261719 -1.054688,0 0,-3.7851563 q 0,-0.6445312 -0.123047,-0.9609375 -0.123047,-0.3222656 -0.439453,-0.5097656 -0.310547,-0.1933594 -0.732422,-0.1933594 -0.673828,0 -1.166015,0.4277344 -0.486328,0.4277344 -0.486328,1.6230469 l 0,3.3984375 -1.054688,0 z"
             style="font-style:normal;font-weight:normal;font-size:12px;line-height:14px;font-family:Arial;fill:#000000;stroke:none"
             id="path5517" />
          <path
             d="m 49.859375,11 0,-0.785156 q -0.591797,0.925781 -1.740234,0.925781 -0.744141,0 -1.371094,-0.410156 -0.621094,-0.410156 -0.966797,-1.1425784 -0.339844,-0.7382812 -0.339844,-1.6933594 0,-0.9316406 0.310547,-1.6875 0.310547,-0.7617187 0.931641,-1.1660156 0.621093,-0.4042969 1.388672,-0.4042969 0.5625,0 1.001953,0.2402344 0.439453,0.234375 0.714843,0.6152344 l 0,-3.0820312 1.048829,0 0,8.5898437 -0.978516,0 z M 46.525391,7.8945312 q 0,1.1953126 0.503906,1.7871094 0.503906,0.5917974 1.189453,0.5917974 0.691406,0 1.171875,-0.5625005 0.486328,-0.5683594 0.486328,-1.7285156 0,-1.2773438 -0.492187,-1.875 -0.492188,-0.5976563 -1.212891,-0.5976563 -0.703125,0 -1.177734,0.5742188 -0.46875,0.5742187 -0.46875,1.8105468 z"
             style="font-style:normal;font-weight:normal;font-size:12px;line-height:14px;font-family:Arial;fill:#000000;stroke:none"
             id="path5519" />
          <path
             d="m 52.484375,3.6230469 0,-1.2128906 1.054687,0 0,1.2128906 -1.054687,0 z m 0,7.3769531 0,-6.2226563 1.054687,0 0,6.2226563 -1.054687,0 z"
             style="font-style:normal;font-weight:normal;font-size:12px;line-height:14px;font-family:Arial;fill:#000000;stroke:none"
             id="path5521" />
          <path
             d="m 56.878906,11 -2.367187,-6.2226563 1.113281,0 1.335937,3.7265626 Q 57.177734,9.1074219 57.359375,9.7578125 57.5,9.265625 57.751953,8.5742188 l 1.382813,-3.7968751 1.083984,0 L 57.863281,11 56.878906,11 Z"
             style="font-style:normal;font-weight:normal;font-size:12px;line-height:14px;font-family:Arial;fill:#000000;stroke:none"
             id="path5523" />
          <path
             d="m 61.15625,3.6230469 0,-1.2128906 1.054687,0 0,1.2128906 -1.054687,0 z m 0,7.3769531 0,-6.2226563 1.054687,0 0,6.2226563 -1.054687,0 z"
             style="font-style:normal;font-weight:normal;font-size:12px;line-height:14px;font-family:Arial;fill:#000000;stroke:none"
             id="path5525" />
          <path
             d="m 67.859375,11 0,-0.785156 q -0.591797,0.925781 -1.740234,0.925781 -0.744141,0 -1.371094,-0.410156 -0.621094,-0.410156 -0.966797,-1.1425784 -0.339844,-0.7382812 -0.339844,-1.6933594 0,-0.9316406 0.310547,-1.6875 0.310547,-0.7617187 0.931641,-1.1660156 0.621093,-0.4042969 1.388672,-0.4042969 0.5625,0 1.001953,0.2402344 0.439453,0.234375 0.714843,0.6152344 l 0,-3.0820312 1.048829,0 0,8.5898437 -0.978516,0 z M 64.525391,7.8945312 q 0,1.1953126 0.503906,1.7871094 0.503906,0.5917974 1.189453,0.5917974 0.691406,0 1.171875,-0.5625005 0.486328,-0.5683594 0.486328,-1.7285156 0,-1.2773438 -0.492187,-1.875 -0.492188,-0.5976563 -1.212891,-0.5976563 -0.703125,0 -1.177734,0.5742188 -0.46875,0.5742187 -0.46875,1.8105468 z"
             style="font-style:normal;font-weight:normal;font-size:12px;line-height:14px;font-family:Arial;fill:#000000;stroke:none"
             id="path5527" />
          <path
             d="m 74.556641,11 0,-0.914062 q -0.726563,1.054687 -1.97461,1.054687 -0.550781,0 -1.03125,-0.210937 -0.474609,-0.210938 -0.708984,-0.527344 -0.228516,-0.322266 -0.322266,-0.7851565 -0.06445,-0.3105469 -0.06445,-0.984375 l 0,-3.8554688 1.054688,0 0,3.4511719 q 0,0.8261719 0.06445,1.1132813 0.09961,0.4160156 0.421875,0.65625 0.322265,0.2343751 0.796875,0.2343751 0.474609,0 0.890625,-0.2402345 0.416015,-0.2460937 0.585937,-0.6621094 0.175781,-0.421875 0.175781,-1.21875 l 0,-3.3339844 1.054688,0 L 75.5,11 74.556641,11 Z"
             style="font-style:normal;font-weight:normal;font-size:12px;line-height:14px;font-family:Arial;fill:#000000;stroke:none"
             id="path5529" />
          <path
             d="m 76.736328,9.1425781 1.042969,-0.1640625 q 0.08789,0.6269532 0.486328,0.9609375 0.404297,0.3339849 1.125,0.3339849 0.726562,0 1.078125,-0.2929692 0.351562,-0.2988282 0.351562,-0.6972657 0,-0.3574218 -0.310546,-0.5625 Q 80.292969,8.5800781 79.431641,8.3632813 78.271484,8.0703125 77.820312,7.859375 77.375,7.6425781 77.140625,7.2675781 76.912109,6.8867187 76.912109,6.4296875 q 0,-0.4160156 0.1875,-0.7675781 0.19336,-0.3574219 0.521485,-0.5917969 0.246093,-0.1816406 0.667968,-0.3046875 0.427735,-0.1289063 0.914063,-0.1289063 0.732422,0 1.283203,0.2109375 0.556641,0.2109375 0.820313,0.5742188 0.263671,0.3574219 0.363281,0.9609375 l -1.03125,0.140625 q -0.07031,-0.4804688 -0.410156,-0.75 -0.333985,-0.2695313 -0.949219,-0.2695313 -0.726563,0 -1.03711,0.2402344 -0.310546,0.2402344 -0.310546,0.5625 0,0.2050781 0.128906,0.3691406 0.128906,0.1699219 0.404297,0.28125 0.158203,0.058594 0.93164,0.2695313 1.119141,0.2988281 1.558594,0.4921875 0.445313,0.1875 0.697266,0.5507813 0.251953,0.3632812 0.251953,0.9023437 0,0.5273438 -0.310547,0.996094 -0.304688,0.46289 -0.884766,0.720703 -0.580078,0.251953 -1.3125,0.251953 -1.21289,0 -1.851562,-0.503906 -0.632813,-0.503906 -0.808594,-1.4941409 z"
             style="font-style:normal;font-weight:normal;font-size:12px;line-height:14px;font-family:Arial;fill:#000000;stroke:none"
             id="path5531" />
        </g>
      </g>
    </g>
    <g
       transform="translate(0.5,0.5) matrix(1,0,0,1,10,27.999999999999996)"
       id="g4661">
      <g
         id="g4663">
        <g
           transform="translate(0,0) scale(1.2,0.4200000000000001)"
           id="g4665">
          <g
             id="g4667">
            <path
               d="M 0 0 L 100 0 Q 100 0 100 0 L 100 100 Q 100 100 100 100 L 0 100 Q 0 100 0 100 L 0 0 Q 0 0 0 0 Z"
               id="path4669"
               stroke="none"
               fill="#FFFFFF" />
            <g
               transform="scale(0.8333333333333334,2.3809523809523805)"
               id="g4671">
              <path
                 d="M 0 0 L 120 0 Q 120 0 120 0 L 120 42.00000000000001 Q 120 42.00000000000001 120 42.00000000000001 L 0 42.00000000000001 Q 0 42.00000000000001 0 42.00000000000001 L 0 0 Q 0 0 0 0 Z"
                 id="path4673"
                 stroke="none"
                 fill="none" />
              <path
                 d="M 0 0 M 0 0 L 120 0 Q 120 0 120 0 L 120 42.00000000000001 Q 120 42.00000000000001 120 42.00000000000001 L 0 42.00000000000001 Q 0 42.00000000000001 0 42.00000000000001 L 0 0 Q 0 0 0 0 Z"
                 stroke-miterlimit="10"
                 id="path4675"
                 stroke="#000000"
                 fill="none" />
            </g>
          </g>
        </g>
      </g>
    </g>
    <g
       transform="matrix(1,0,0,1,12,30)"
       id="g4677">
      <g
         id="g4679"
         transform="translate(57,0) matrix(1,0,0,1,0,0) translate(-57,0)">
        <g
           id="g4681">
          <path
             style="fill:#000000;fill-opacity:0;stroke:none"
             d="M 0,0 117,0 117,18 0,18 Z"
             id="rect4683" />
        </g>
      </g>
      <g
         id="g4685"
         transform="translate(57,0) matrix(1,0,0,1,0,0) translate(-57,0)">
        <g
           id="g4687">
          <path
             style="fill:#000000;fill-opacity:0;stroke:none"
             d="M 0,0 117,0 117,14 0,14 Z"
             id="rect4689" />
        </g>
      </g>
      <g
         id="g4691"
         transform="translate(57,0) matrix(1,0,0,1,0,0) translate(-57,0)">
        <g
           id="g4693">
          <path
             style="fill:#000000;fill-opacity:0;stroke:none"
             d="m 57,0 3,0 0,14 -3,0 z"
             id="rect4695" />
        </g>
      </g>
    </g>
    <g
       transform="matrix(1,0,0,1,12,150)"
       id="g4751">
      <g
         id="g4753"
         transform="translate(57,0) matrix(1,0,0,1,0,0) translate(-57,0)">
        <g
           id="g4755">
          <path
             style="fill:#000000;fill-opacity:0;stroke:none"
             d="M 0,0 117,0 117,18 0,18 Z"
             id="rect4757" />
        </g>
      </g>
      <g
         id="g4759"
         transform="translate(57,0) matrix(1,0,0,1,0,0) translate(-57,0)">
        <g
           id="g4761">
          <path
             style="fill:#000000;fill-opacity:0;stroke:none"
             d="M 0,0 117,0 117,14 0,14 Z"
             id="rect4763" />
        </g>
      </g>
      <g
         id="g4765"
         transform="translate(57,0) matrix(1,0,0,1,0,0) translate(-57,0)">
        <g
           id="g4767">
          <path
             style="fill:#000000;fill-opacity:0;stroke:none"
             d="m 57,0 3,0 0,14 -3,0 z"
             id="rect4769" />
        </g>
      </g>
    </g>
    <g
       transform="translate(0.5,0.5) matrix(1,0,0,1,230,9.999999999999996)"
       id="g4771">
      <g
         id="g4773">
        <g
           transform="translate(0,0) scale(1.2,0.18)"
           id="g4775">
          <g
             id="g4777">
            <path
               d="M 0 0 L 100 0 Q 100 0 100 0 L 100 100 Q 100 100 100 100 L 0 100 Q 0 100 0 100 L 0 0 Q 0 0 0 0 Z"
               id="path4779"
               stroke="none"
               fill="#FFFFFF" />
            <g
               transform="scale(0.8333333333333334,5.555555555555555)"
               id="g4781">
              <path
                 d="M 0 0 L 120 0 Q 120 0 120 0 L 120 18 Q 120 18 120 18 L 0 18 Q 0 18 0 18 L 0 0 Q 0 0 0 0 Z"
                 id="path4783"
                 stroke="none"
                 fill="none" />
              <path
                 d="M 0 0 M 0 0 L 120 0 Q 120 0 120 0 L 120 18 Q 120 18 120 18 L 0 18 Q 0 18 0 18 L 0 0 Q 0 0 0 0 Z"
                 stroke-miterlimit="10"
                 id="path4785"
                 stroke="#000000"
                 fill="none" />
            </g>
          </g>
        </g>
      </g>
    </g>
    <g
       transform="translate(0.5,0.5) matrix(1,0,0,1,230,27.999999999999996)"
       id="g4787">
      <g
         id="g4789"
         transform="matrix(0.99854713,0,0,1.3810916,0.08717227,0.08717227)">
        <g
           transform="scale(1.2,0.42)"
           id="g4791">
          <g
             id="g4793">
            <path
               d="m 0,0 100,0 q 0,0 0,0 l 0,100 q 0,0 0,0 L 0,100 q 0,0 0,0 L 0,0 q 0,0 0,0 z"
               id="path4795"
               inkscape:connector-curvature="0"
               style="fill:#ffffff;stroke:none" />
            <g
               transform="scale(0.83333333,2.3809524)"
               id="g4797">
              <path
                 d="m 0,0 120,0 q 0,0 0,0 l 0,42 q 0,0 0,0 L 0,42 q 0,0 0,0 L 0,0 q 0,0 0,0 z"
                 id="path4799"
                 inkscape:connector-curvature="0"
                 style="fill:none;stroke:none" />
              <path
                 d="m 0,0 m 0,0 120,0 q 0,0 0,0 l 0,42 q 0,0 0,0 L 0,42 q 0,0 0,0 L 0,0 q 0,0 0,0 z"
                 stroke-miterlimit="10"
                 id="path4801"
                 inkscape:connector-curvature="0"
                 style="fill:none;stroke:#000000;stroke-miterlimit:10" />
            </g>
          </g>
        </g>
      </g>
    </g>
    <g
       transform="matrix(1,0,0,1,232,12)"
       id="g4803">
      <g
         id="g4805"
         transform="translate(44,0) matrix(1,0,0,1,0,0) translate(-44,0)">
        <g
           id="g4807">
          <path
             style="fill:#000000;fill-opacity:0;stroke:none"
             d="M 0,0 117,0 117,18 0,18 Z"
             id="rect4809" />
        </g>
      </g>
      <g
         id="g4811"
         transform="translate(44,0) matrix(1,0,0,1,0,0) translate(-44,0)">
        <g
           id="g4813">
          <path
             style="fill:#000000;fill-opacity:0;stroke:none"
             d="M 0,0 117,0 117,14 0,14 Z"
             id="rect4815" />
        </g>
      </g>
      <g
         id="g4817"
         transform="translate(44,0) matrix(1,0,0,1,0,0) translate(-44,0)">
        <g
           id="g4819">
          <path
             style="fill:#000000;fill-opacity:0;stroke:none"
             d="m 44,0 29,0 0,14 -29,0 z"
             id="rect4821" />
        </g>
        <g
           style="font-style:normal;font-weight:normal;font-size:12px;line-height:14px;font-family:Arial;fill:#000000;stroke:none"
           id="text4823">
          <path
             d="m 47.111328,11 0,-7.5761719 -2.830078,0 0,-1.0136718 6.808594,0 0,1.0136718 -2.841797,0 0,7.5761719 -1.136719,0 z"
             style="font-style:normal;font-weight:normal;font-size:12px;line-height:14px;font-family:Arial;fill:#000000;stroke:none"
             id="path5493" />
          <path
             d="m 51.669922,11 0,-6.2226563 0.949219,0 0,0.9433594 q 0.363281,-0.6621094 0.667968,-0.8730469 0.310547,-0.2109375 0.679688,-0.2109375 0.533203,0 1.083984,0.3398438 L 54.6875,5.9550781 q -0.386719,-0.2285156 -0.773438,-0.2285156 -0.345703,0 -0.621093,0.2109375 -0.275391,0.2050781 -0.392578,0.5742187 -0.175782,0.5625 -0.175782,1.2304688 l 0,3.2578125 -1.054687,0 z"
             style="font-style:normal;font-weight:normal;font-size:12px;line-height:14px;font-family:Arial;fill:#000000;stroke:none"
             id="path5495" />
          <path
             d="m 59.726562,10.232422 q -0.585937,0.498047 -1.130859,0.703125 -0.539062,0.205078 -1.160156,0.205078 -1.025391,0 -1.576172,-0.498047 -0.550781,-0.503906 -0.550781,-1.283203 0,-0.4570312 0.205078,-0.8320312 0.210937,-0.3808594 0.544922,-0.6093751 0.339843,-0.2285156 0.761718,-0.3457031 0.310547,-0.082031 0.9375,-0.1582031 1.277344,-0.1523438 1.88086,-0.3632813 0.0059,-0.2167968 0.0059,-0.2753906 0,-0.6445312 -0.298828,-0.9082031 -0.404297,-0.3574219 -1.201172,-0.3574219 -0.74414,0 -1.101562,0.2636719 -0.351563,0.2578125 -0.521485,0.9199219 l -1.03125,-0.140625 q 0.140625,-0.6621094 0.462891,-1.0664063 0.322266,-0.4101562 0.931641,-0.6269531 0.609375,-0.2226563 1.412109,-0.2226563 0.796875,0 1.294922,0.1875 0.498047,0.1875 0.732422,0.4746094 0.234375,0.28125 0.328125,0.7148438 0.05273,0.2695312 0.05273,0.9726562 l 0,1.40625 q 0,1.4707032 0.06445,1.8632809 Q 60.839844,10.642578 61.039062,11 L 59.9375,11 q -0.164063,-0.328125 -0.210938,-0.767578 z m -0.08789,-2.3554689 q -0.574219,0.234375 -1.722656,0.3984375 -0.650391,0.09375 -0.919922,0.2109375 -0.269532,0.1171875 -0.416016,0.3457032 -0.146484,0.2226562 -0.146484,0.4980468 0,0.421875 0.316406,0.7031249 0.322266,0.28125 0.9375,0.28125 0.609375,0 1.083984,-0.263672 0.47461,-0.269531 0.697266,-0.7324216 0.169922,-0.3574219 0.169922,-1.0546875 l 0,-0.3867188 z"
             style="font-style:normal;font-weight:normal;font-size:12px;line-height:14px;font-family:Arial;fill:#000000;stroke:none"
             id="path5497" />
          <path
             d="m 62.328125,3.6230469 0,-1.2128906 1.054687,0 0,1.2128906 -1.054687,0 z m 0,7.3769531 0,-6.2226563 1.054687,0 0,6.2226563 -1.054687,0 z"
             style="font-style:normal;font-weight:normal;font-size:12px;line-height:14px;font-family:Arial;fill:#000000;stroke:none"
             id="path5499" />
          <path
             d="m 67.296875,10.056641 0.152344,0.93164 q -0.445313,0.09375 -0.796875,0.09375 -0.574219,0 -0.890625,-0.18164 Q 65.445312,10.71875 65.316406,10.425781 65.1875,10.126953 65.1875,9.1777344 l 0,-3.5800782 -0.773438,0 0,-0.8203125 0.773438,0 0,-1.5410156 1.048828,-0.6328125 0,2.1738281 1.060547,0 0,0.8203125 -1.060547,0 0,3.6386719 q 0,0.4511719 0.05273,0.5800782 0.05859,0.1289062 0.181641,0.2050777 0.128906,0.07617 0.363281,0.07617 0.175782,0 0.462891,-0.04101 z"
             style="font-style:normal;font-weight:normal;font-size:12px;line-height:14px;font-family:Arial;fill:#000000;stroke:none"
             id="path5501" />
          <path
             d="m 67.900391,9.1425781 1.042968,-0.1640625 q 0.08789,0.6269532 0.486328,0.9609375 0.404297,0.3339849 1.125,0.3339849 0.726563,0 1.078125,-0.2929692 0.351563,-0.2988282 0.351563,-0.6972657 0,-0.3574218 -0.310547,-0.5625 Q 71.457031,8.5800781 70.595703,8.3632813 69.435547,8.0703125 68.984375,7.859375 68.539062,7.6425781 68.304687,7.2675781 68.076172,6.8867187 68.076172,6.4296875 q 0,-0.4160156 0.1875,-0.7675781 0.193359,-0.3574219 0.521484,-0.5917969 0.246094,-0.1816406 0.667969,-0.3046875 0.427734,-0.1289063 0.914062,-0.1289063 0.732422,0 1.283204,0.2109375 0.55664,0.2109375 0.820312,0.5742188 0.263672,0.3574219 0.363281,0.9609375 l -1.03125,0.140625 q -0.07031,-0.4804688 -0.410156,-0.75 -0.333984,-0.2695313 -0.949219,-0.2695313 -0.726562,0 -1.037109,0.2402344 -0.310547,0.2402344 -0.310547,0.5625 0,0.2050781 0.128906,0.3691406 0.128907,0.1699219 0.404297,0.28125 0.158203,0.058594 0.931641,0.2695313 1.11914,0.2988281 1.558594,0.4921875 0.445312,0.1875 0.697265,0.5507813 0.251953,0.3632812 0.251953,0.9023437 0,0.5273438 -0.310547,0.996094 -0.304687,0.46289 -0.884765,0.720703 -0.580078,0.251953 -1.3125,0.251953 -1.212891,0 -1.851563,-0.503906 -0.632812,-0.503906 -0.808593,-1.4941409 z"
             style="font-style:normal;font-weight:normal;font-size:12px;line-height:14px;font-family:Arial;fill:#000000;stroke:none"
             id="path5503" />
        </g>
      </g>
    </g>
    <g
       transform="matrix(1,0,0,1,232,30)"
       id="g4825">
      <g
         id="g4827"
         transform="translate(57,0) matrix(1,0,0,1,0,0) translate(-57,0)">
        <g
           id="g4829">
          <path
             style="fill:#000000;fill-opacity:0;stroke:none"
             d="M 0,0 117,0 117,18 0,18 Z"
             id="rect4831" />
        </g>
      </g>
      <g
         id="g4833"
         transform="translate(57,0) matrix(1,0,0,1,0,0) translate(-57,0)">
        <g
           id="g4835">
          <path
             style="fill:#000000;fill-opacity:0;stroke:none"
             d="M 0,0 117,0 117,14 0,14 Z"
             id="rect4837" />
        </g>
      </g>
      <g
         id="g4839"
         transform="translate(57,0) matrix(1,0,0,1,0,0) translate(-57,0)">
        <g
           id="g4841">
          <path
             style="fill:#000000;fill-opacity:0;stroke:none"
             d="m 57,0 3,0 0,14 -3,0 z"
             id="rect4843" />
        </g>
      </g>
    </g>
    <g
       transform="translate(0.5,0.5) matrix(1,0,0,1,230,130)"
       id="g4845">
      <g
         id="g4847">
        <g
           transform="translate(0,0) scale(1.2,0.18)"
           id="g4849">
          <g
             id="g4851">
            <path
               d="M 0 0 L 100 0 Q 100 0 100 0 L 100 100 Q 100 100 100 100 L 0 100 Q 0 100 0 100 L 0 0 Q 0 0 0 0 Z"
               id="path4853"
               stroke="none"
               fill="#FFFFFF" />
            <g
               transform="scale(0.8333333333333334,5.555555555555555)"
               id="g4855">
              <path
                 d="M 0 0 L 120 0 Q 120 0 120 0 L 120 18 Q 120 18 120 18 L 0 18 Q 0 18 0 18 L 0 0 Q 0 0 0 0 Z"
                 id="path4857"
                 stroke="none"
                 fill="none" />
              <path
                 d="M 0 0 M 0 0 L 120 0 Q 120 0 120 0 L 120 18 Q 120 18 120 18 L 0 18 Q 0 18 0 18 L 0 0 Q 0 0 0 0 Z"
                 stroke-miterlimit="10"
                 id="path4859"
                 stroke="#000000"
                 fill="none" />
            </g>
          </g>
        </g>
      </g>
    </g>
    <g
       transform="translate(0.5,0.5) matrix(1,0,0,1,230,148)"
       id="g4861">
      <g
         id="g4863">
        <g
           transform="translate(0,0) scale(1.2,0.4200000000000001)"
           id="g4865">
          <g
             id="g4867">
            <path
               d="M 0 0 L 100 0 Q 100 0 100 0 L 100 100 Q 100 100 100 100 L 0 100 Q 0 100 0 100 L 0 0 Q 0 0 0 0 Z"
               id="path4869"
               stroke="none"
               fill="#FFFFFF" />
            <g
               transform="scale(0.8333333333333334,2.3809523809523805)"
               id="g4871">
              <path
                 d="M 0 0 L 120 0 Q 120 0 120 0 L 120 42.00000000000001 Q 120 42.00000000000001 120 42.00000000000001 L 0 42.00000000000001 Q 0 42.00000000000001 0 42.00000000000001 L 0 0 Q 0 0 0 0 Z"
                 id="path4873"
                 stroke="none"
                 fill="none" />
              <path
                 d="M 0 0 M 0 0 L 120 0 Q 120 0 120 0 L 120 42.00000000000001 Q 120 42.00000000000001 120 42.00000000000001 L 0 42.00000000000001 Q 0 42.00000000000001 0 42.00000000000001 L 0 0 Q 0 0 0 0 Z"
                 stroke-miterlimit="10"
                 id="path4875"
                 stroke="#000000"
                 fill="none" />
            </g>
          </g>
        </g>
      </g>
    </g>
    <g
       transform="matrix(1,0,0,1,232,132)"
       id="g4877">
      <g
         id="g4879"
         transform="translate(29,0) matrix(1,0,0,1,0,0) translate(-29,0)">
        <g
           id="g4881">
          <path
             style="fill:#000000;fill-opacity:0;stroke:none"
             d="M 0,0 117,0 117,18 0,18 Z"
             id="rect4883" />
        </g>
      </g>
      <g
         id="g4885"
         transform="translate(29,0) matrix(1,0,0,1,0,0) translate(-29,0)">
        <g
           id="g4887">
          <path
             style="fill:#000000;fill-opacity:0;stroke:none"
             d="M 0,0 117,0 117,14 0,14 Z"
             id="rect4889" />
        </g>
      </g>
      <g
         id="g4891"
         transform="translate(29,0) matrix(1,0,0,1,0,0) translate(-29,0)">
        <g
           id="g4893">
          <path
             style="fill:#000000;fill-opacity:0;stroke:none"
             d="m 29,0 59,0 0,14 -59,0 z"
             id="rect4895" />
        </g>
        <g
           style="font-style:normal;font-weight:normal;font-size:12px;line-height:14px;font-family:Arial;fill:#000000;stroke:none"
           id="text4897">
          <path
             d="m 32.111328,11 0,-7.5761719 -2.830078,0 0,-1.0136718 6.808594,0 0,1.0136718 -2.841797,0 0,7.5761719 -1.136719,0 z"
             style="font-style:normal;font-weight:normal;font-size:12px;line-height:14px;font-family:Arial;fill:#000000;stroke:none"
             id="path5468" />
          <path
             d="m 39.851562,10.232422 q -0.585937,0.498047 -1.130859,0.703125 -0.539062,0.205078 -1.160156,0.205078 -1.025391,0 -1.576172,-0.498047 -0.550781,-0.503906 -0.550781,-1.283203 0,-0.4570312 0.205078,-0.8320312 0.210937,-0.3808594 0.544922,-0.6093751 0.339843,-0.2285156 0.761718,-0.3457031 0.310547,-0.082031 0.9375,-0.1582031 1.277344,-0.1523438 1.88086,-0.3632813 0.0059,-0.2167968 0.0059,-0.2753906 0,-0.6445312 -0.298828,-0.9082031 -0.404297,-0.3574219 -1.201172,-0.3574219 -0.74414,0 -1.101562,0.2636719 -0.351563,0.2578125 -0.521485,0.9199219 l -1.03125,-0.140625 q 0.140625,-0.6621094 0.462891,-1.0664063 0.322266,-0.4101562 0.931641,-0.6269531 0.609375,-0.2226563 1.412109,-0.2226563 0.796875,0 1.294922,0.1875 0.498047,0.1875 0.732422,0.4746094 0.234375,0.28125 0.328125,0.7148438 0.05273,0.2695312 0.05273,0.9726562 l 0,1.40625 q 0,1.4707032 0.06445,1.8632809 Q 40.964844,10.642578 41.164062,11 L 40.0625,11 q -0.164063,-0.328125 -0.210938,-0.767578 z m -0.08789,-2.3554689 q -0.574219,0.234375 -1.722656,0.3984375 -0.650391,0.09375 -0.919922,0.2109375 -0.269532,0.1171875 -0.416016,0.3457032 -0.146484,0.2226562 -0.146484,0.4980468 0,0.421875 0.316406,0.7031249 0.322266,0.28125 0.9375,0.28125 0.609375,0 1.083984,-0.263672 0.47461,-0.269531 0.697266,-0.7324216 0.169922,-0.3574219 0.169922,-1.0546875 l 0,-0.3867188 z"
             style="font-style:normal;font-weight:normal;font-size:12px;line-height:14px;font-family:Arial;fill:#000000;stroke:none"
             id="path5470" />
          <path
             d="m 41.744141,11 2.273437,-3.234375 -2.103516,-2.9882813 1.31836,0 0.955078,1.4589844 q 0.269531,0.4160156 0.433594,0.6972656 0.257812,-0.3867187 0.474609,-0.6855468 l 1.048828,-1.4707032 1.259766,0 L 45.253906,7.7070312 47.568359,11 46.273437,11 44.996094,9.0664063 44.65625,8.5449219 43.021484,11 41.744141,11 Z"
             style="font-style:normal;font-weight:normal;font-size:12px;line-height:14px;font-family:Arial;fill:#000000;stroke:none"
             id="path5472" />
          <path
             d="m 48.054687,7.8886719 q 0,-1.7285157 0.960938,-2.5605469 0.802734,-0.6914063 1.957031,-0.6914063 1.283203,0 2.097656,0.84375 0.814454,0.8378907 0.814454,2.3203125 0,1.2011719 -0.363282,1.8925782 -0.357422,0.6855466 -1.048828,1.0664066 -0.685547,0.380859 -1.5,0.380859 -1.30664,0 -2.115234,-0.837891 -0.802735,-0.8378902 -0.802735,-2.4140621 z m 1.083985,0 q 0,1.1953125 0.521484,1.7929687 0.521485,0.5917974 1.3125,0.5917974 0.785156,0 1.306641,-0.5976567 0.521484,-0.5976563 0.521484,-1.8222657 0,-1.1542969 -0.527344,-1.7460937 -0.521484,-0.5976563 -1.300781,-0.5976563 -0.791015,0 -1.3125,0.5917969 -0.521484,0.5917969 -0.521484,1.7871094 z"
             style="font-style:normal;font-weight:normal;font-size:12px;line-height:14px;font-family:Arial;fill:#000000;stroke:none"
             id="path5474" />
          <path
             d="m 55.126953,11 0,-6.2226563 0.949219,0 0,0.8847657 q 0.685547,-1.0253907 1.980469,-1.0253907 0.5625,0 1.03125,0.2050782 0.474609,0.1992187 0.708984,0.5273437 0.234375,0.328125 0.328125,0.7792969 0.05859,0.2929687 0.05859,1.0253906 l 0,3.8261719 -1.054688,0 0,-3.7851563 q 0,-0.6445312 -0.123047,-0.9609375 -0.123047,-0.3222656 -0.439453,-0.5097656 -0.310547,-0.1933594 -0.732422,-0.1933594 -0.673828,0 -1.166015,0.4277344 -0.486328,0.4277344 -0.486328,1.6230469 l 0,3.3984375 -1.054688,0 z"
             style="font-style:normal;font-weight:normal;font-size:12px;line-height:14px;font-family:Arial;fill:#000000;stroke:none"
             id="path5476" />
          <path
             d="m 61.414062,7.8886719 q 0,-1.7285157 0.960938,-2.5605469 0.802734,-0.6914063 1.957031,-0.6914063 1.283203,0 2.097656,0.84375 0.814454,0.8378907 0.814454,2.3203125 0,1.2011719 -0.363282,1.8925782 -0.357422,0.6855466 -1.048828,1.0664066 -0.685547,0.380859 -1.5,0.380859 -1.30664,0 -2.115234,-0.837891 -0.802735,-0.8378902 -0.802735,-2.4140621 z m 1.083985,0 q 0,1.1953125 0.521484,1.7929687 0.521485,0.5917974 1.3125,0.5917974 0.785156,0 1.306641,-0.5976567 0.521484,-0.5976563 0.521484,-1.8222657 0,-1.1542969 -0.527344,-1.7460937 -0.521484,-0.5976563 -1.300781,-0.5976563 -0.791015,0 -1.3125,0.5917969 -0.521484,0.5917969 -0.521484,1.7871094 z"
             style="font-style:normal;font-weight:normal;font-size:12px;line-height:14px;font-family:Arial;fill:#000000;stroke:none"
             id="path5478" />
          <path
             d="m 68.486328,11 0,-6.2226563 0.943359,0 0,0.8730469 q 0.292969,-0.4570312 0.779297,-0.7324219 0.486328,-0.28125 1.107422,-0.28125 0.691406,0 1.13086,0.2871094 0.445312,0.2871094 0.626953,0.8027344 0.738281,-1.0898438 1.921875,-1.0898438 0.925781,0 1.423828,0.515625 0.498047,0.5097657 0.498047,1.5761719 l 0,4.2714844 -1.048828,0 0,-3.9199219 q 0,-0.6328125 -0.105469,-0.9082031 Q 75.664062,5.890625 75.394531,5.7207031 75.125,5.5507812 74.761719,5.5507812 q -0.65625,0 -1.089844,0.4394532 -0.433594,0.4335937 -0.433594,1.3945312 l 0,3.6152344 -1.054687,0 0,-4.0429688 q 0,-0.703125 -0.257813,-1.0546875 -0.257812,-0.3515625 -0.84375,-0.3515625 -0.445312,0 -0.826172,0.234375 -0.375,0.234375 -0.544922,0.6855469 -0.169921,0.4511719 -0.169921,1.3007813 l 0,3.2285156 -1.054688,0 z"
             style="font-style:normal;font-weight:normal;font-size:12px;line-height:14px;font-family:Arial;fill:#000000;stroke:none"
             id="path5480" />
          <path
             d="m 78.5,3.6230469 0,-1.2128906 1.054687,0 0,1.2128906 -1.054687,0 z M 78.5,11 l 0,-6.2226563 1.054687,0 0,6.2226563 L 78.5,11 Z"
             style="font-style:normal;font-weight:normal;font-size:12px;line-height:14px;font-family:Arial;fill:#000000;stroke:none"
             id="path5482" />
          <path
             d="m 85.425781,8.9960938 1.089844,0.1347656 q -0.257813,0.9550786 -0.955078,1.4824216 -0.697266,0.527344 -1.78125,0.527344 -1.365235,0 -2.167969,-0.837891 -0.796875,-0.8437496 -0.796875,-2.3613278 0,-1.5703125 0.808594,-2.4375 0.808594,-0.8671875 2.097656,-0.8671875 1.248047,0 2.039063,0.8496094 0.791015,0.8496094 0.791015,2.390625 0,0.09375 -0.0059,0.28125 l -4.640625,0 q 0.05859,1.0253907 0.580078,1.5703125 0.521484,0.5449224 1.300781,0.5449224 0.580078,0 0.990235,-0.304688 0.410156,-0.3046875 0.65039,-0.9726562 z m -3.46289,-1.7050782 3.474609,0 q -0.07031,-0.7851562 -0.398438,-1.1777344 -0.503906,-0.609375 -1.30664,-0.609375 -0.726563,0 -1.22461,0.4863282 -0.492187,0.4863281 -0.544921,1.3007812 z"
             style="font-style:normal;font-weight:normal;font-size:12px;line-height:14px;font-family:Arial;fill:#000000;stroke:none"
             id="path5484" />
        </g>
      </g>
    </g>
    <g
       transform="matrix(1,0,0,1,232,150)"
       id="g4899">
      <g
         id="g4901"
         transform="translate(57,0) matrix(1,0,0,1,0,0) translate(-57,0)">
        <g
           id="g4903">
          <path
             style="fill:#000000;fill-opacity:0;stroke:none"
             d="M 0,0 117,0 117,18 0,18 Z"
             id="rect4905" />
        </g>
      </g>
      <g
         id="g4907"
         transform="translate(57,0) matrix(1,0,0,1,0,0) translate(-57,0)">
        <g
           id="g4909">
          <path
             style="fill:#000000;fill-opacity:0;stroke:none"
             d="M 0,0 117,0 117,14 0,14 Z"
             id="rect4911" />
        </g>
      </g>
      <g
         id="g4913"
         transform="translate(57,0) matrix(1,0,0,1,0,0) translate(-57,0)">
        <g
           id="g4915">
          <path
             style="fill:#000000;fill-opacity:0;stroke:none"
             d="m 57,0 3,0 0,14 -3,0 z"
             id="rect4917" />
        </g>
      </g>
    </g>
    <g
       transform="translate(126,25)"
       id="g4919">
      <g
         id="g4921">
        <g
           id="g4923">
          <path
             style="fill:#000000;fill-opacity:0;stroke:none"
             d="M 0,0 27,0 27,24 0,24 Z"
             id="rect4925" />
        </g>
      </g>
      <g
         id="g4927">
        <g
           id="g4929">
          <path
             style="fill:#000000;fill-opacity:0;stroke:none"
             d="M 0,0 27,0 27,14 0,14 Z"
             id="rect4931" />
        </g>
      </g>
      <g
         id="g4933">
        <g
           id="g4935">
          <path
             style="fill:#000000;fill-opacity:0;stroke:none"
             d="m 10,0 7,0 0,14 -7,0 z"
             id="rect4937" />
        </g>
      </g>
      <g
         id="g4939">
        <g
           id="g4941">
          <path
             style="fill:#000000;fill-opacity:0;stroke:none"
             d="m 10,0 7,0 0,14 -7,0 z"
             id="rect4943" />
        </g>
        <g
           style="font-style:normal;font-weight:normal;font-size:12px;line-height:14px;font-family:Arial;fill:#000000;stroke:none"
           id="text4945">
          <path
             d="m 14.470703,11 -1.054687,0 0,-6.7207031 q -0.38086,0.3632812 -1.001953,0.7265625 -0.615235,0.3632812 -1.107422,0.5449218 l 0,-1.0195312 Q 12.191406,4.1152344 12.853516,3.5234375 13.515625,2.9316406 13.791016,2.375 l 0.679687,0 0,8.625 z"
             style="font-style:normal;font-weight:normal;font-size:12px;line-height:14px;font-family:Arial;fill:#000000;stroke:none"
             id="path5459" />
        </g>
      </g>
    </g>
    <g
       transform="translate(194,25)"
       id="g4947">
      <g
         id="g4949">
        <g
           id="g4951">
          <path
             style="fill:#000000;fill-opacity:0;stroke:none"
             d="M 0,0 57,0 57,23 0,23 Z"
             id="rect4953" />
        </g>
      </g>
      <g
         id="g4955">
        <g
           id="g4957">
          <path
             style="fill:#000000;fill-opacity:0;stroke:none"
             d="M 0,0 57,0 57,14 0,14 Z"
             id="rect4959" />
        </g>
      </g>
      <g
         id="g4961">
        <g
           id="g4963">
          <path
             style="fill:#000000;fill-opacity:0;stroke:none"
             d="m 25,0 7,0 0,14 -7,0 z"
             id="rect4965" />
        </g>
      </g>
      <g
         id="g4967">
        <g
           id="g4969">
          <path
             style="fill:#000000;fill-opacity:0;stroke:none"
             d="m 25,0 7,0 0,14 -7,0 z"
             id="rect4971" />
        </g>
        <g
           style="font-style:normal;font-weight:normal;font-size:12px;line-height:14px;font-family:Arial;fill:#000000;stroke:none"
           id="text4973">
          <path
             d="m 25.791016,11 0,-6.2226563 0.949218,0 0,0.8847657 q 0.685547,-1.0253907 1.980469,-1.0253907 0.5625,0 1.03125,0.2050782 0.474609,0.1992187 0.708984,0.5273437 0.234375,0.328125 0.328125,0.7792969 0.05859,0.2929687 0.05859,1.0253906 l 0,3.8261719 -1.054687,0 0,-3.7851563 q 0,-0.6445312 -0.123047,-0.9609375 -0.123047,-0.3222656 -0.439453,-0.5097656 -0.310547,-0.1933594 -0.732422,-0.1933594 -0.673828,0 -1.166016,0.4277344 -0.486328,0.4277344 -0.486328,1.6230469 l 0,3.3984375 -1.054687,0 z"
             style="font-style:normal;font-weight:normal;font-size:12px;line-height:14px;font-family:Arial;fill:#000000;stroke:none"
             id="path5452" />
        </g>
      </g>
    </g>
    <g
       transform="matrix(1,0,0,1,125.5,35.5)"
       id="g4975">
      <g
         id="g4977"
         transform="translate(0,0)">
        <g
           transform="translate(-129,-40) translate(3.5,4.5) matrix(1,0,0,1,0,0)"
           id="g4979">
          <g
             id="g4981">
            <path
               d="M 130 40 L 153.33333333333331 40 Q 163.33333333333331 40 173.33333333333331 40 L 186.66666666666666 40 Q 196.66666666666666 40 206.66666666666666 40 L 230 40"
               stroke-miterlimit="10"
               id="path4983"
               stroke-width="2"
               stroke="#000000"
               fill="none" />
          </g>
        </g>
      </g>
    </g>
    <g
       transform="matrix(0,0.4128901,-1,0,296.68594,86.414307)"
       id="g4985">
      <g
         id="g4987">
        <g
           transform="translate(-125.5,-155.5)"
           id="g4989">
          <g
             id="g4991">
            <path
               d="m 230,160 -23.33333,0 q -10,0 -20,0 l -13.33334,0 q -10,0 -20,0 L 130,160"
               stroke-miterlimit="10"
               id="path4993"
               inkscape:connector-curvature="0"
               style="fill:none;stroke:#000000;stroke-width:2;stroke-miterlimit:10" />
          </g>
        </g>
      </g>
    </g>
    <g
       transform="translate(209.95681,115.6494)"
       id="g5023"
       inkscape:transform-center-x="69.343688"
       inkscape:transform-center-y="23.576854">
      <g
         id="g5025">
        <g
           id="g5027">
          <path
             style="fill:#000000;fill-opacity:0;stroke:none"
             d="M 0,0 147,0 147,14 0,14 Z"
             id="rect5029" />
        </g>
      </g>
      <g
         id="g5031">
        <g
           id="g5033">
          <path
             style="fill:#000000;fill-opacity:0;stroke:none"
             d="M 0,0 147,0 147,14 0,14 Z"
             id="rect5035" />
        </g>
      </g>
      <g
         id="g5037">
        <g
           id="g5039">
          <path
             style="fill:#000000;fill-opacity:0;stroke:none"
             d="m 70,0 7,0 0,14 -7,0 z"
             id="rect5041" />
        </g>
      </g>
      <g
         id="g5043">
        <g
           id="g5045">
          <path
             style="fill:#000000;fill-opacity:0;stroke:none"
             d="m 70,0 7,0 0,14 -7,0 z"
             id="rect5047" />
        </g>
        <g
           style="font-style:normal;font-weight:normal;font-size:12px;line-height:14px;font-family:Arial;fill:#000000;stroke:none"
           id="text5049">
          <path
             d="m 74.470703,11 -1.054687,0 0,-6.7207031 q -0.38086,0.3632812 -1.001954,0.7265625 -0.615234,0.3632812 -1.107421,0.5449218 l 0,-1.0195312 Q 72.191406,4.1152344 72.853516,3.5234375 73.515625,2.9316406 73.791016,2.375 l 0.679687,0 0,8.625 z"
             style="font-style:normal;font-weight:normal;font-size:12px;line-height:14px;font-family:Arial;fill:#000000;stroke:none"
             id="path5445" />
        </g>
      </g>
    </g>
    <g
       transform="translate(254.73056,85.560154)"
       id="g5188">
      <g
         id="g5190">
        <g
           id="g5192">
          <path
             style="fill:#000000;fill-opacity:0;stroke:none"
             d="M 0,0 57,0 57,23 0,23 Z"
             id="rect5194" />
        </g>
      </g>
      <g
         id="g5196">
        <g
           id="g5198">
          <path
             style="fill:#000000;fill-opacity:0;stroke:none"
             d="M 0,0 57,0 57,14 0,14 Z"
             id="rect5200" />
        </g>
      </g>
      <g
         id="g5202">
        <g
           id="g5204">
          <path
             style="fill:#000000;fill-opacity:0;stroke:none"
             d="m 25,0 7,0 0,14 -7,0 z"
             id="rect5206" />
        </g>
      </g>
      <g
         id="g5208">
        <g
           id="g5210">
          <path
             style="fill:#000000;fill-opacity:0;stroke:none"
             d="m 25,0 7,0 0,14 -7,0 z"
             id="rect5212" />
        </g>
        <g
           style="font-style:normal;font-weight:normal;font-size:12px;line-height:14px;font-family:Arial;fill:#000000;stroke:none"
           id="text5214">
          <path
             d="m 25.791016,11 0,-6.2226563 0.949218,0 0,0.8847657 q 0.685547,-1.0253907 1.980469,-1.0253907 0.5625,0 1.03125,0.2050782 0.474609,0.1992187 0.708984,0.5273437 0.234375,0.328125 0.328125,0.7792969 0.05859,0.2929687 0.05859,1.0253906 l 0,3.8261719 -1.054687,0 0,-3.7851563 q 0,-0.6445312 -0.123047,-0.9609375 -0.123047,-0.3222656 -0.439453,-0.5097656 -0.310547,-0.1933594 -0.732422,-0.1933594 -0.673828,0 -1.166016,0.4277344 -0.486328,0.4277344 -0.486328,1.6230469 l 0,3.3984375 -1.054687,0 z"
             style="font-style:normal;font-weight:normal;font-size:12px;line-height:14px;font-family:Arial;fill:#000000;stroke:none"
             id="path5438" />
        </g>
      </g>
    </g>
    <path
       style="opacity:1;fill:#ff5555;fill-opacity:0.45593872;stroke:none;stroke-width:15;stroke-miterlimit:4;stroke-dasharray:none;stroke-dashoffset:0;stroke-opacity:1"
       d="m 13.075571,31.518454 115.065029,0 0,11.114235 -115.065029,0 z"
       id="rect5295" />
    <path
       style="opacity:1;fill:#ff5555;fill-opacity:0.45593872;stroke:none;stroke-width:15;stroke-miterlimit:4;stroke-dasharray:none;stroke-dashoffset:0;stroke-opacity:1"
       d="m 232.74516,30.864676 115.06504,0 0,11.114235 -115.06504,0 z"
       id="rect5297" />
    <path
       style="opacity:1;fill:#ff5555;fill-opacity:0.45593872;stroke:none;stroke-width:15;stroke-miterlimit:4;stroke-dasharray:none;stroke-dashoffset:0;stroke-opacity:1"
       d="m 232.74516,151.15993 115.06504,0 0,11.11423 -115.06504,0 z"
       id="rect5299" />
    <path
       id="path5533"
       d="m 232.90334,44.017575 115.06503,0 0,11.114235 -115.06503,0 z"
       style="opacity:1;fill:#8dd35f;fill-opacity:1;stroke:none;stroke-width:15;stroke-miterlimit:4;stroke-dasharray:none;stroke-dashoffset:0;stroke-opacity:1"
       inkscape:connector-curvature="0" />
    <path
       inkscape:connector-curvature="0"
       style="opacity:1;fill:#8dd35f;fill-opacity:1;stroke:none;stroke-width:15;stroke-miterlimit:4;stroke-dasharray:none;stroke-dashoffset:0;stroke-opacity:1"
       d="m 232.90334,58.017575 115.06503,0 0,11.114235 -115.06503,0 z"
       id="path6612" />
  </g>
  <path
     style="opacity:1;fill:#ffffff;fill-opacity:1;stroke:none;stroke-width:15;stroke-miterlimit:4;stroke-dasharray:none;stroke-dashoffset:0;stroke-opacity:1"
     d="m 12.481864,12.601635 114.648236,0 0,12.019572 -114.648236,0 z"
     id="rect5071" />
  <path
     style="opacity:1;fill:#ffffff;fill-opacity:1;stroke:none;stroke-width:15;stroke-miterlimit:4;stroke-dasharray:none;stroke-dashoffset:0;stroke-opacity:1"
     d="m 233.91937,13.526217 112.79906,0 0,11.557281 -112.79906,0 z"
     id="rect5073" />
  <g
     style="font-style:normal;font-weight:normal;font-size:11.65622711px;line-height:125%;font-family:sans-serif;letter-spacing:0px;word-spacing:0px;fill:#000000;fill-opacity:1;stroke:none;stroke-width:1px;stroke-linecap:butt;stroke-linejoin:miter;stroke-opacity:1"
     id="text5075">
    <path
       d="m 61.037535,22.928415 0,-8.343764 1.104154,0 0,7.359132 4.109276,0 0,0.984632 -5.21343,0 z"
       style="font-style:normal;font-variant:normal;font-weight:normal;font-stretch:normal;font-family:Arial;-inkscape-font-specification:Arial"
       id="path5099" />
    <path
       d="m 71.361947,22.182827 q -0.569152,0.483779 -1.098463,0.682982 -0.52362,0.199203 -1.12692,0.199203 -0.996016,0 -1.531018,-0.483779 -0.535003,-0.489471 -0.535003,-1.246443 0,-0.443938 0.199203,-0.808195 0.204895,-0.369949 0.529311,-0.591918 0.330108,-0.221969 0.739897,-0.335799 0.301651,-0.07968 0.910643,-0.153671 1.240751,-0.14798 1.826977,-0.352874 0.0057,-0.210586 0.0057,-0.267502 0,-0.626066 -0.290268,-0.882185 -0.392714,-0.347182 -1.166761,-0.347182 -0.722822,0 -1.070005,0.256118 -0.341491,0.250427 -0.506545,0.893568 L 67.24698,18.608554 q 0.136596,-0.643142 0.44963,-1.035856 0.313033,-0.398407 0.904951,-0.608993 0.591918,-0.216277 1.371656,-0.216277 0.774046,0 1.257825,0.182128 0.483779,0.182129 0.71144,0.461013 0.22766,0.273193 0.318725,0.694365 0.05122,0.26181 0.05122,0.944792 l 0,1.365964 q 0,1.428571 0.06261,1.809903 0.0683,0.37564 0.26181,0.722822 l -1.070006,0 Q 71.407479,22.60969 71.361947,22.182827 Z m -0.08537,-2.28799 q -0.557769,0.22766 -1.673306,0.387023 -0.631758,0.09106 -0.893568,0.204894 -0.26181,0.113831 -0.404098,0.3358 -0.142288,0.216278 -0.142288,0.483779 0,0.409789 0.307342,0.682982 0.313034,0.273193 0.910643,0.273193 0.591918,0 1.052931,-0.256118 0.461012,-0.26181 0.67729,-0.71144 0.165054,-0.347183 0.165054,-1.024473 l 0,-0.37564 z"
       style="font-style:normal;font-variant:normal;font-weight:normal;font-stretch:normal;font-family:Arial;-inkscape-font-specification:Arial"
       id="path5101" />
    <path
       d="m 77.82751,20.714415 1.007399,0.130905 q -0.165054,1.041548 -0.848036,1.633465 -0.677291,0.586227 -1.667615,0.586227 -1.240751,0 -1.997722,-0.808196 -0.751281,-0.813887 -0.751281,-2.32783 0,-0.978941 0.324417,-1.713147 0.324416,-0.734206 0.984632,-1.098463 0.665908,-0.369948 1.445646,-0.369948 0.984632,0 1.610699,0.500853 0.626067,0.495162 0.802504,1.411496 l -0.996016,0.153671 q -0.142288,-0.608992 -0.506545,-0.916334 -0.358565,-0.307342 -0.870802,-0.307342 -0.774046,0 -1.257825,0.557769 -0.483779,0.552077 -0.483779,1.752987 0,1.217985 0.466704,1.770062 0.466705,0.552077 1.217985,0.552077 0.603301,0 1.007399,-0.369948 0.404097,-0.369949 0.512236,-1.138304 z"
       style="font-style:normal;font-variant:normal;font-weight:normal;font-stretch:normal;font-family:Arial;-inkscape-font-specification:Arial"
       id="path5103" />
  </g>
  <g
     style="font-style:normal;font-weight:normal;font-size:11.65622711px;line-height:125%;font-family:sans-serif;letter-spacing:0px;word-spacing:0px;fill:#000000;fill-opacity:1;stroke:none;stroke-width:1px;stroke-linecap:butt;stroke-linejoin:miter;stroke-opacity:1"
     id="text5079">
    <path
       d="m 273.28454,23.852999 0,-8.343764 3.14741,0 q 0.83096,0 1.26921,0.07968 0.61469,0.102447 1.03017,0.392715 0.41548,0.284575 0.6659,0.802503 0.25612,0.517929 0.25612,1.138304 0,1.064314 -0.67729,1.804211 -0.67729,0.734206 -2.44735,0.734206 l -2.14001,0 0,3.392144 -1.10416,0 z m 1.10416,-4.376777 2.15708,0 q 1.07001,0 1.51964,-0.398406 0.44963,-0.398406 0.44963,-1.121229 0,-0.52362 -0.2675,-0.893568 -0.26181,-0.37564 -0.69437,-0.495162 -0.27888,-0.07399 -1.03016,-0.07399 l -2.13432,0 0,2.982355 z"
       style="font-style:normal;font-variant:normal;font-weight:normal;font-stretch:normal;font-family:Arial;-inkscape-font-specification:Arial"
       id="path5084" />
    <path
       d="m 280.53554,20.830803 q 0,-1.678997 0.93341,-2.487193 0.77973,-0.671599 1.90096,-0.671599 1.24644,0 2.03757,0.819579 0.79112,0.813887 0.79112,2.25384 0,1.166761 -0.35288,1.83836 -0.34718,0.665908 -1.01878,1.035857 -0.66591,0.369948 -1.45703,0.369948 -1.26921,0 -2.05464,-0.813887 -0.77973,-0.813887 -0.77973,-2.344905 z m 1.05293,0 q 0,1.16107 0.50654,1.741604 0.50655,0.574844 1.2749,0.574844 0.76267,0 1.26921,-0.580535 0.50655,-0.580535 0.50655,-1.770062 0,-1.121229 -0.51224,-1.696072 -0.50655,-0.580535 -1.26352,-0.580535 -0.76835,0 -1.2749,0.574843 -0.50654,0.574844 -0.50654,1.735913 z"
       style="font-style:normal;font-variant:normal;font-weight:normal;font-stretch:normal;font-family:Arial;-inkscape-font-specification:Arial"
       id="path5086" />
    <path
       d="m 287.41089,16.687379 0,-1.178144 1.02447,0 0,1.178144 -1.02447,0 z m 0,7.16562 0,-6.044391 1.02447,0 0,6.044391 -1.02447,0 z"
       style="font-style:normal;font-variant:normal;font-weight:normal;font-stretch:normal;font-family:Arial;-inkscape-font-specification:Arial"
       id="path5088" />
    <path
       d="m 289.59074,22.048788 1.01309,-0.159363 q 0.0854,0.608993 0.4724,0.933409 0.39271,0.324417 1.09277,0.324417 0.70575,0 1.04724,-0.284576 0.34149,-0.290268 0.34149,-0.677291 0,-0.347182 -0.30165,-0.546385 -0.21059,-0.136597 -1.04724,-0.347183 -1.12692,-0.284576 -1.56517,-0.48947 -0.43255,-0.210587 -0.66021,-0.574844 -0.22197,-0.369948 -0.22197,-0.813887 0,-0.404097 0.18213,-0.745588 0.18782,-0.347183 0.50654,-0.574844 0.23904,-0.176437 0.64883,-0.295959 0.41548,-0.125213 0.88788,-0.125213 0.71144,0 1.24644,0.204895 0.5407,0.204894 0.79681,0.557768 0.25612,0.347183 0.35288,0.933409 l -1.00171,0.136597 q -0.0683,-0.466705 -0.3984,-0.728515 -0.32442,-0.261809 -0.92203,-0.261809 -0.70575,0 -1.0074,0.233352 -0.30165,0.233352 -0.30165,0.546386 0,0.199203 0.12521,0.358565 0.12522,0.165054 0.39272,0.273193 0.15367,0.05692 0.90495,0.26181 1.08708,0.290267 1.51394,0.478087 0.43256,0.182129 0.67729,0.535003 0.24474,0.352874 0.24474,0.876493 0,0.512237 -0.30165,0.967558 -0.29596,0.44963 -0.85942,0.700057 -0.56346,0.244735 -1.2749,0.244735 -1.17814,0 -1.79852,-0.48947 -0.61468,-0.489471 -0.78543,-1.451337 z"
       style="font-style:normal;font-variant:normal;font-weight:normal;font-stretch:normal;font-family:Arial;-inkscape-font-specification:Arial"
       id="path5090" />
    <path
       d="m 295.41885,22.048788 1.0131,-0.159363 q 0.0854,0.608993 0.47239,0.933409 0.39272,0.324417 1.09277,0.324417 0.70575,0 1.04724,-0.284576 0.34149,-0.290268 0.34149,-0.677291 0,-0.347182 -0.30165,-0.546385 -0.21058,-0.136597 -1.04724,-0.347183 -1.12692,-0.284576 -1.56516,-0.48947 -0.43256,-0.210587 -0.66022,-0.574844 -0.22197,-0.369948 -0.22197,-0.813887 0,-0.404097 0.18213,-0.745588 0.18782,-0.347183 0.50654,-0.574844 0.23905,-0.176437 0.64884,-0.295959 0.41548,-0.125213 0.88787,-0.125213 0.71144,0 1.24645,0.204895 0.54069,0.204894 0.79681,0.557768 0.25612,0.347183 0.35287,0.933409 l -1.0017,0.136597 q -0.0683,-0.466705 -0.39841,-0.728515 -0.32442,-0.261809 -0.92203,-0.261809 -0.70574,0 -1.0074,0.233352 -0.30165,0.233352 -0.30165,0.546386 0,0.199203 0.12522,0.358565 0.12521,0.165054 0.39271,0.273193 0.15367,0.05692 0.90495,0.26181 1.08708,0.290267 1.51395,0.478087 0.43255,0.182129 0.67729,0.535003 0.24473,0.352874 0.24473,0.876493 0,0.512237 -0.30165,0.967558 -0.29596,0.44963 -0.85942,0.700057 -0.56346,0.244735 -1.2749,0.244735 -1.17814,0 -1.79852,-0.48947 -0.61468,-0.489471 -0.78543,-1.451337 z"
       style="font-style:normal;font-variant:normal;font-weight:normal;font-stretch:normal;font-family:Arial;-inkscape-font-specification:Arial"
       id="path5092" />
    <path
       d="m 301.27543,20.830803 q 0,-1.678997 0.9334,-2.487193 0.77974,-0.671599 1.90097,-0.671599 1.24644,0 2.03756,0.819579 0.79113,0.813887 0.79113,2.25384 0,1.166761 -0.35288,1.83836 -0.34718,0.665908 -1.01878,1.035857 -0.66591,0.369948 -1.45703,0.369948 -1.26921,0 -2.05464,-0.813887 -0.77973,-0.813887 -0.77973,-2.344905 z m 1.05293,0 q 0,1.16107 0.50654,1.741604 0.50655,0.574844 1.2749,0.574844 0.76266,0 1.26921,-0.580535 0.50654,-0.580535 0.50654,-1.770062 0,-1.121229 -0.51223,-1.696072 -0.50655,-0.580535 -1.26352,-0.580535 -0.76835,0 -1.2749,0.574843 -0.50654,0.574844 -0.50654,1.735913 z"
       style="font-style:normal;font-variant:normal;font-weight:normal;font-stretch:normal;font-family:Arial;-inkscape-font-specification:Arial"
       id="path5094" />
    <path
       d="m 308.14509,23.852999 0,-6.044391 0.92202,0 0,0.859419 q 0.66591,-0.996016 1.92374,-0.996016 0.54638,0 1.0017,0.199203 0.46102,0.193512 0.68868,0.512237 0.22766,0.318725 0.31872,0.756972 0.0569,0.284575 0.0569,0.996015 l 0,3.716561 -1.02448,0 0,-3.67672 q 0,-0.626067 -0.11952,-0.933409 -0.11952,-0.313034 -0.42686,-0.495162 -0.30165,-0.18782 -0.71144,-0.18782 -0.65453,0 -1.13261,0.415481 -0.4724,0.41548 -0.4724,1.57655 l 0,3.30108 -1.02447,0 z"
       style="font-style:normal;font-variant:normal;font-weight:normal;font-stretch:normal;font-family:Arial;-inkscape-font-specification:Arial"
       id="path5096" />
  </g>
  <g
     style="font-style:normal;font-weight:normal;font-size:25px;line-height:125%;font-family:sans-serif;letter-spacing:0px;word-spacing:0px;fill:#000000;fill-opacity:1;stroke:none;stroke-width:1px;stroke-linecap:butt;stroke-linejoin:miter;stroke-opacity:1"
     id="text5124">
    <path
       d="m 15.39121,34.186768 1.010742,0 0,6.152343 -1.010742,0 0,-6.152343 z m 0,-2.39502 1.010742,0 0,1.279907 -1.010742,0 0,-1.279907 z"
       style="font-size:11.25px"
       id="path5416" />
    <path
       d="m 22.559789,35.120605 0,-3.328857 1.010742,0 0,8.547363 -1.010742,0 0,-0.922851 q -0.318604,0.549316 -0.807495,0.818481 -0.483399,0.263672 -1.164551,0.263672 -1.115112,0 -1.818237,-0.889892 -0.697632,-0.889893 -0.697632,-2.340088 0,-1.450196 0.697632,-2.340088 0.703125,-0.889893 1.818237,-0.889893 0.681152,0 1.164551,0.269165 0.488891,0.263672 0.807495,0.812988 z m -3.444214,2.147828 q 0,1.115112 0.455932,1.752319 0.461426,0.631714 1.263428,0.631714 0.802002,0 1.263428,-0.631714 0.461426,-0.637207 0.461426,-1.752319 0,-1.115113 -0.461426,-1.746827 -0.461426,-0.637207 -1.263428,-0.637207 -0.802002,0 -1.263428,0.637207 -0.455932,0.631714 -0.455932,1.746827 z"
       style="font-size:11.25px"
       id="path5418" />
    <path
       d="m 30.327123,42.206787 0,0.785523 -5.844727,0 0,-0.785523 5.844727,0 z"
       style="font-size:11.25px"
       id="path5420" />
    <path
       d="m 31.27744,31.791748 1.010742,0 0,8.547363 -1.010742,0 0,-8.547363 z"
       style="font-size:11.25px"
       id="path5422" />
    <path
       d="m 37.193578,37.24646 q -1.224976,0 -1.697388,0.280151 -0.472412,0.280152 -0.472412,0.955811 0,0.53833 0.351562,0.856933 0.357056,0.313111 0.966797,0.313111 0.840454,0 1.345826,-0.593262 0.510864,-0.598755 0.510864,-1.587524 l 0,-0.22522 -1.005249,0 z m 2.015991,-0.417481 0,3.510132 -1.010742,0 0,-0.933838 q -0.34607,0.560303 -0.862427,0.829468 -0.516357,0.263672 -1.263428,0.263672 -0.944824,0 -1.505127,-0.527344 -0.554809,-0.532837 -0.554809,-1.422729 0,-1.038208 0.692138,-1.565552 0.697632,-0.527344 2.076416,-0.527344 l 1.417237,0 0,-0.09888 q 0,-0.697631 -0.461426,-1.07666 -0.455933,-0.384521 -1.2854,-0.384521 -0.527344,0 -1.027222,0.126343 -0.499878,0.126342 -0.961304,0.379028 l 0,-0.933838 q 0.55481,-0.214233 1.07666,-0.318604 0.521851,-0.109863 1.016236,-0.109863 1.334839,0 1.994018,0.692139 0.65918,0.692138 0.65918,2.098388 z"
       style="font-size:11.25px"
       id="path5424" />
    <path
       d="m 45.746434,34.422974 0,0.944824 q -0.428467,-0.236206 -0.862427,-0.351563 -0.428466,-0.120849 -0.867919,-0.120849 -0.983277,0 -1.5271,0.62622 -0.543823,0.620728 -0.543823,1.746827 0,1.126098 0.543823,1.752319 0.543823,0.620727 1.5271,0.620727 0.439453,0 0.867919,-0.115356 0.43396,-0.12085 0.862427,-0.357056 l 0,0.933838 q -0.422973,0.197754 -0.878906,0.296631 -0.450439,0.09888 -0.961304,0.09888 -1.38977,0 -2.208252,-0.873413 -0.818481,-0.873413 -0.818481,-2.356567 0,-1.505127 0.823974,-2.367554 0.829468,-0.862427 2.268677,-0.862427 0.466919,0 0.911865,0.09888 0.444947,0.09338 0.862427,0.285645 z"
       style="font-size:11.25px"
       id="path5426" />
  </g>
  <g
     style="font-style:normal;font-weight:normal;font-size:25px;line-height:125%;font-family:sans-serif;letter-spacing:0px;word-spacing:0px;fill:#000000;fill-opacity:1;stroke:none;stroke-width:1px;stroke-linecap:butt;stroke-linejoin:miter;stroke-opacity:1"
     id="text5128">
    <path
       d="m 20.505345,50.625732 0,3.713379 -1.010742,0 0,-3.68042 q 0,-0.873413 -0.340576,-1.307373 -0.340576,-0.43396 -1.021729,-0.43396 -0.818481,0 -1.290893,0.521851 -0.472412,0.521851 -0.472412,1.422729 l 0,3.477173 -1.016236,0 0,-6.152343 1.016236,0 0,0.95581 q 0.362549,-0.554809 0.85144,-0.829468 0.494385,-0.274658 1.137085,-0.274658 1.060181,0 1.604004,0.65918 0.543823,0.653686 0.543823,1.9281 z"
       style="font-size:11.25px"
       id="path5409" />
    <path
       d="m 24.916356,48.895386 q -0.812988,0 -1.2854,0.637207 -0.472412,0.631714 -0.472412,1.73584 0,1.104126 0.466919,1.741333 0.472412,0.631713 1.290893,0.631713 0.807495,0 1.279907,-0.637207 0.472412,-0.637207 0.472412,-1.735839 0,-1.09314 -0.472412,-1.730347 -0.472412,-0.6427 -1.279907,-0.6427 z m 0,-0.856934 q 1.318359,0 2.070923,0.856934 0.752563,0.856933 0.752563,2.373047 0,1.51062 -0.752563,2.373046 -0.752564,0.856934 -2.070923,0.856934 -1.323852,0 -2.076416,-0.856934 -0.74707,-0.862426 -0.74707,-2.373046 0,-1.516114 0.74707,-2.373047 0.752564,-0.856934 2.076416,-0.856934 z"
       style="font-size:11.25px"
       id="path5411" />
    <path
       d="m 34.199803,49.367798 q 0.379029,-0.681152 0.906372,-1.005249 0.527344,-0.324097 1.241456,-0.324097 0.961303,0 1.483154,0.675659 0.52185,0.670166 0.52185,1.911621 l 0,3.713379 -1.016235,0 0,-3.68042 q 0,-0.884399 -0.31311,-1.312866 -0.313111,-0.428467 -0.955811,-0.428467 -0.785522,0 -1.241455,0.521851 -0.455933,0.521851 -0.455933,1.422729 l 0,3.477173 -1.016235,0 0,-3.68042 q 0,-0.889892 -0.31311,-1.312866 -0.313111,-0.428467 -0.966797,-0.428467 -0.774536,0 -1.230469,0.527344 -0.455933,0.521851 -0.455933,1.417236 l 0,3.477173 -1.016235,0 0,-6.152343 1.016235,0 0,0.95581 q 0.34607,-0.565796 0.829468,-0.834961 0.483399,-0.269165 1.148072,-0.269165 0.670166,0 1.137085,0.340576 0.472412,0.340576 0.697631,0.98877 z"
       style="font-size:11.25px"
       id="path5413" />
  </g>
  <g
     style="font-style:normal;font-weight:normal;font-size:25px;line-height:125%;font-family:sans-serif;letter-spacing:0px;word-spacing:0px;fill:#000000;fill-opacity:1;stroke:none;stroke-width:1px;stroke-linecap:butt;stroke-linejoin:miter;stroke-opacity:1"
     id="text5136">
    <path
       d="m 15.534032,64.943848 1.159057,0 0,1.395263 -1.159057,0 0,-1.395263 z"
       style="font-size:11.25px"
       id="path5402" />
    <path
       d="m 19.115575,64.943848 1.159057,0 0,1.395263 -1.159057,0 0,-1.395263 z"
       style="font-size:11.25px"
       id="path5404" />
    <path
       d="m 22.697118,64.943848 1.159057,0 0,1.395263 -1.159057,0 0,-1.395263 z"
       style="font-size:11.25px"
       id="path5406" />
  </g>
  <g
     style="font-style:normal;font-weight:normal;font-size:25px;line-height:125%;font-family:sans-serif;letter-spacing:0px;word-spacing:0px;fill:#000000;fill-opacity:1;stroke:none;stroke-width:1px;stroke-linecap:butt;stroke-linejoin:miter;stroke-opacity:1"
     id="text5144">
    <path
       d="m 235.44185,33.724476 1.01074,0 0,6.152344 -1.01074,0 0,-6.152344 z m 0,-2.39502 1.01074,0 0,1.279908 -1.01074,0 0,-1.279908 z"
       style="font-size:11.25px"
       id="path5381" />
    <path
       d="m 242.61043,34.658314 0,-3.328858 1.01074,0 0,8.547364 -1.01074,0 0,-0.922852 q -0.31861,0.549316 -0.8075,0.818481 -0.4834,0.263672 -1.16455,0.263672 -1.11511,0 -1.81824,-0.889892 -0.69763,-0.889893 -0.69763,-2.340088 0,-1.450195 0.69763,-2.340088 0.70313,-0.889893 1.81824,-0.889893 0.68115,0 1.16455,0.269165 0.48889,0.263672 0.8075,0.812989 z m -3.44422,2.147827 q 0,1.115112 0.45594,1.752319 0.46142,0.631714 1.26342,0.631714 0.80201,0 1.26343,-0.631714 0.46143,-0.637207 0.46143,-1.752319 0,-1.115112 -0.46143,-1.746826 -0.46142,-0.637207 -1.26343,-0.637207 -0.802,0 -1.26342,0.637207 -0.45594,0.631714 -0.45594,1.746826 z"
       style="font-size:11.25px"
       id="path5383" />
    <path
       d="m 250.37776,41.744495 0,0.785523 -5.84472,0 0,-0.785523 5.84472,0 z"
       style="font-size:11.25px"
       id="path5385" />
    <path
       d="m 252.30586,38.953968 0,3.26294 -1.01623,0 0,-8.492432 1.01623,0 0,0.933838 q 0.31861,-0.549317 0.802,-0.812989 0.4889,-0.269165 1.16456,-0.269165 1.1206,0 1.81823,0.889893 0.70313,0.889893 0.70313,2.340088 0,1.450195 -0.70313,2.340088 -0.69763,0.889892 -1.81823,0.889892 -0.67566,0 -1.16456,-0.263672 -0.48339,-0.269165 -0.802,-0.818481 z m 3.43872,-2.147827 q 0,-1.115112 -0.46142,-1.746826 -0.45594,-0.637207 -1.25794,-0.637207 -0.802,0 -1.26342,0.637207 -0.45594,0.631714 -0.45594,1.746826 0,1.115112 0.45594,1.752319 0.46142,0.631714 1.26342,0.631714 0.802,0 1.25794,-0.631714 0.46142,-0.637207 0.46142,-1.752319 z"
       style="font-size:11.25px"
       id="path5387" />
    <path
       d="m 260.85323,34.433094 q -0.81299,0 -1.2854,0.637207 -0.47242,0.631714 -0.47242,1.73584 0,1.104126 0.46692,1.741333 0.47241,0.631714 1.2909,0.631714 0.80749,0 1.2799,-0.637207 0.47242,-0.637207 0.47242,-1.73584 0,-1.09314 -0.47242,-1.730347 -0.47241,-0.6427 -1.2799,-0.6427 z m 0,-0.856934 q 1.31836,0 2.07092,0.856934 0.75256,0.856934 0.75256,2.373047 0,1.51062 -0.75256,2.373047 -0.75256,0.856933 -2.07092,0.856933 -1.32386,0 -2.07642,-0.856933 -0.74707,-0.862427 -0.74707,-2.373047 0,-1.516113 0.74707,-2.373047 0.75256,-0.856934 2.07642,-0.856934 z"
       style="font-size:11.25px"
       id="path5389" />
    <path
       d="m 265.34663,33.724476 1.01075,0 0,6.152344 -1.01075,0 0,-6.152344 z m 0,-2.39502 1.01075,0 0,1.279908 -1.01075,0 0,-1.279908 z"
       style="font-size:11.25px"
       id="path5391" />
    <path
       d="m 272.38887,33.90575 0,0.955811 q -0.42847,-0.219727 -0.88989,-0.32959 -0.46143,-0.109863 -0.95581,-0.109863 -0.75257,0 -1.13159,0.230713 -0.37354,0.230712 -0.37354,0.692138 0,0.351563 0.26917,0.55481 0.26916,0.197754 1.08215,0.379028 l 0.34607,0.0769 q 1.07666,0.230713 1.5271,0.653687 0.45593,0.41748 0.45593,1.170044 0,0.856934 -0.68115,1.356811 -0.67566,0.499878 -1.86218,0.499878 -0.49439,0 -1.03272,-0.09888 -0.53284,-0.09338 -1.1261,-0.285644 l 0,-1.043701 q 0.5603,0.291137 1.10413,0.439453 0.54382,0.142822 1.07666,0.142822 0.71411,0 1.09863,-0.241699 0.38452,-0.247192 0.38452,-0.692139 0,-0.411987 -0.28015,-0.631714 -0.27466,-0.219726 -1.21399,-0.422973 l -0.35156,-0.0824 q -0.93933,-0.197754 -1.35681,-0.604248 -0.41748,-0.411987 -0.41748,-1.126098 0,-0.86792 0.61523,-1.340332 0.61524,-0.472413 1.74683,-0.472413 0.5603,0 1.05469,0.0824 0.49438,0.0824 0.91186,0.247192 z"
       style="font-size:11.25px"
       id="path5393" />
    <path
       d="m 278.25557,33.90575 0,0.955811 q -0.42847,-0.219727 -0.88989,-0.32959 -0.46143,-0.109863 -0.95581,-0.109863 -0.75257,0 -1.1316,0.230713 -0.37353,0.230712 -0.37353,0.692138 0,0.351563 0.26916,0.55481 0.26917,0.197754 1.08216,0.379028 l 0.34607,0.0769 q 1.07666,0.230713 1.5271,0.653687 0.45593,0.41748 0.45593,1.170044 0,0.856934 -0.68115,1.356811 -0.67566,0.499878 -1.86219,0.499878 -0.49438,0 -1.03271,-0.09888 -0.53284,-0.09338 -1.1261,-0.285644 l 0,-1.043701 q 0.5603,0.291137 1.10413,0.439453 0.54382,0.142822 1.07666,0.142822 0.71411,0 1.09863,-0.241699 0.38452,-0.247192 0.38452,-0.692139 0,-0.411987 -0.28015,-0.631714 -0.27466,-0.219726 -1.21399,-0.422973 l -0.35156,-0.0824 q -0.93933,-0.197754 -1.35681,-0.604248 -0.41748,-0.411987 -0.41748,-1.126098 0,-0.86792 0.61523,-1.340332 0.61523,-0.472413 1.74683,-0.472413 0.5603,0 1.05468,0.0824 0.49439,0.0824 0.91187,0.247192 z"
       style="font-size:11.25px"
       id="path5395" />
    <path
       d="m 282.58418,34.433094 q -0.81299,0 -1.2854,0.637207 -0.47241,0.631714 -0.47241,1.73584 0,1.104126 0.46692,1.741333 0.47241,0.631714 1.29089,0.631714 0.8075,0 1.27991,-0.637207 0.47241,-0.637207 0.47241,-1.73584 0,-1.09314 -0.47241,-1.730347 -0.47241,-0.6427 -1.27991,-0.6427 z m 0,-0.856934 q 1.31836,0 2.07093,0.856934 0.75256,0.856934 0.75256,2.373047 0,1.51062 -0.75256,2.373047 -0.75257,0.856933 -2.07093,0.856933 -1.32385,0 -2.07641,-0.856933 -0.74707,-0.862427 -0.74707,-2.373047 0,-1.516113 0.74707,-2.373047 0.75256,-0.856934 2.07641,-0.856934 z"
       style="font-size:11.25px"
       id="path5397" />
    <path
       d="m 292.19173,36.163441 0,3.713379 -1.01075,0 0,-3.68042 q 0,-0.873413 -0.34057,-1.307373 -0.34058,-0.43396 -1.02173,-0.43396 -0.81848,0 -1.29089,0.52185 -0.47242,0.521851 -0.47242,1.42273 l 0,3.477173 -1.01623,0 0,-6.152344 1.01623,0 0,0.95581 q 0.36255,-0.554809 0.85144,-0.829467 0.49439,-0.274659 1.13709,-0.274659 1.06018,0 1.604,0.65918 0.54383,0.653687 0.54383,1.928101 z"
       style="font-size:11.25px"
       id="path5399" />
  </g>
  <g
     style="font-style:normal;font-weight:normal;font-size:25px;line-height:125%;font-family:sans-serif;letter-spacing:0px;word-spacing:0px;fill:#000000;fill-opacity:1;stroke:none;stroke-width:1px;stroke-linecap:butt;stroke-linejoin:miter;stroke-opacity:1"
     id="text5148">
    <path
       d="m 235.44185,47.724476 1.01074,0 0,6.152344 -1.01074,0 0,-6.152344 z m 0,-2.39502 1.01074,0 0,1.279908 -1.01074,0 0,-1.279908 z"
       style="font-size:11.25px"
       id="path5368" />
    <path
       d="m 242.61043,48.658314 0,-3.328858 1.01074,0 0,8.547364 -1.01074,0 0,-0.922852 q -0.31861,0.549316 -0.8075,0.818481 -0.4834,0.263672 -1.16455,0.263672 -1.11511,0 -1.81824,-0.889892 -0.69763,-0.889893 -0.69763,-2.340088 0,-1.450195 0.69763,-2.340088 0.70313,-0.889893 1.81824,-0.889893 0.68115,0 1.16455,0.269165 0.48889,0.263672 0.8075,0.812989 z m -3.44422,2.147827 q 0,1.115112 0.45594,1.752319 0.46142,0.631714 1.26342,0.631714 0.80201,0 1.26343,-0.631714 0.46143,-0.637207 0.46143,-1.752319 0,-1.115112 -0.46143,-1.746826 -0.46142,-0.637207 -1.26343,-0.637207 -0.802,0 -1.26342,0.637207 -0.45594,0.631714 -0.45594,1.746826 z"
       style="font-size:11.25px"
       id="path5370" />
    <path
       d="m 250.37776,55.744495 0,0.785523 -5.84472,0 0,-0.785523 5.84472,0 z"
       style="font-size:11.25px"
       id="path5372" />
    <path
       d="m 251.32808,45.329456 1.01074,0 0,8.547364 -1.01074,0 0,-8.547364 z"
       style="font-size:11.25px"
       id="path5374" />
    <path
       d="m 257.24422,50.784168 q -1.22498,0 -1.69739,0.280152 -0.47241,0.280151 -0.47241,0.95581 0,0.53833 0.35156,0.856934 0.35706,0.31311 0.9668,0.31311 0.84045,0 1.34582,-0.593262 0.51087,-0.598754 0.51087,-1.587524 l 0,-0.22522 -1.00525,0 z m 2.01599,-0.41748 0,3.510132 -1.01074,0 0,-0.933838 q -0.34607,0.560302 -0.86243,0.829467 -0.51636,0.263672 -1.26343,0.263672 -0.94482,0 -1.50513,-0.527343 -0.55481,-0.532837 -0.55481,-1.42273 0,-1.038208 0.69214,-1.565552 0.69764,-0.527343 2.07642,-0.527343 l 1.41724,0 0,-0.09888 q 0,-0.697632 -0.46143,-1.07666 -0.45593,-0.384522 -1.2854,-0.384522 -0.52734,0 -1.02722,0.126343 -0.49988,0.126343 -0.96131,0.379028 l 0,-0.933838 q 0.55481,-0.214233 1.07666,-0.318603 0.52186,-0.109864 1.01624,-0.109864 1.33484,0 1.99402,0.692139 0.65918,0.692139 0.65918,2.098389 z"
       style="font-size:11.25px"
       id="path5376" />
    <path
       d="m 265.79707,47.960682 0,0.944824 q -0.42846,-0.236206 -0.86242,-0.351562 -0.42847,-0.12085 -0.86792,-0.12085 -0.98328,0 -1.5271,0.626221 -0.54383,0.620727 -0.54383,1.746826 0,1.126099 0.54383,1.752319 0.54382,0.620728 1.5271,0.620728 0.43945,0 0.86792,-0.115357 0.43396,-0.120849 0.86242,-0.357055 l 0,0.933838 q -0.42297,0.197753 -0.8789,0.29663 -0.45044,0.09888 -0.96131,0.09888 -1.38977,0 -2.20825,-0.873413 -0.81848,-0.873413 -0.81848,-2.356567 0,-1.505127 0.82397,-2.367554 0.82947,-0.862427 2.26868,-0.862427 0.46692,0 0.91187,0.09888 0.44494,0.09338 0.86242,0.285645 z"
       style="font-size:11.25px"
       id="path5378" />
  </g>
  <g
     style="font-style:normal;font-weight:normal;font-size:25px;line-height:125%;font-family:sans-serif;letter-spacing:0px;word-spacing:0px;fill:#000000;fill-opacity:1;stroke:none;stroke-width:1px;stroke-linecap:butt;stroke-linejoin:miter;stroke-opacity:1"
     id="text5152">
    <path
       d="m 235.44185,61.72448 1.01074,0 0,6.152343 -1.01074,0 0,-6.152343 z m 0,-2.39502 1.01074,0 0,1.279907 -1.01074,0 0,-1.279907 z"
       style="font-size:11.25px"
       id="path5355" />
    <path
       d="m 242.61043,62.658318 0,-3.328858 1.01074,0 0,8.547363 -1.01074,0 0,-0.922851 q -0.31861,0.549316 -0.8075,0.818481 -0.4834,0.263672 -1.16455,0.263672 -1.11511,0 -1.81824,-0.889892 -0.69763,-0.889893 -0.69763,-2.340088 0,-1.450196 0.69763,-2.340088 0.70313,-0.889893 1.81824,-0.889893 0.68115,0 1.16455,0.269165 0.48889,0.263672 0.8075,0.812989 z m -3.44422,2.147827 q 0,1.115112 0.45594,1.752319 0.46142,0.631714 1.26342,0.631714 0.80201,0 1.26343,-0.631714 0.46143,-0.637207 0.46143,-1.752319 0,-1.115113 -0.46143,-1.746826 -0.46142,-0.637207 -1.26343,-0.637207 -0.802,0 -1.26342,0.637207 -0.45594,0.631713 -0.45594,1.746826 z"
       style="font-size:11.25px"
       id="path5357" />
    <path
       d="m 250.37776,69.744499 0,0.785523 -5.84472,0 0,-0.785523 5.84472,0 z"
       style="font-size:11.25px"
       id="path5359" />
    <path
       d="m 256.59053,64.547966 0,0.494385 -4.64722,0 q 0.0659,1.043701 0.62622,1.593017 0.5658,0.543824 1.57105,0.543824 0.58227,0 1.1261,-0.142823 0.54931,-0.142822 1.08764,-0.428466 l 0,0.95581 q -0.54382,0.230713 -1.11511,0.351563 -0.57129,0.120849 -1.15906,0.120849 -1.47216,0 -2.33459,-0.856933 -0.85693,-0.856934 -0.85693,-2.318116 0,-1.51062 0.81298,-2.395019 0.81849,-0.889893 2.20276,-0.889893 1.24146,0 1.96106,0.802002 0.7251,0.796509 0.7251,2.1698 z m -1.01074,-0.296631 q -0.011,-0.829468 -0.46692,-1.323852 -0.45044,-0.494385 -1.19751,-0.494385 -0.84595,0 -1.35681,0.477905 -0.50537,0.477905 -0.58228,1.345825 l 3.60352,-0.0055 z"
       style="font-size:11.25px"
       id="path5361" />
    <path
       d="m 262.14961,61.905754 0,0.955811 q -0.42846,-0.219727 -0.88989,-0.32959 -0.46143,-0.109863 -0.95581,-0.109863 -0.75256,0 -1.13159,0.230712 -0.37354,0.230713 -0.37354,0.692139 0,0.351563 0.26917,0.55481 0.26916,0.197754 1.08215,0.379028 l 0.34607,0.0769 q 1.07666,0.230713 1.5271,0.653687 0.45593,0.41748 0.45593,1.170044 0,0.856933 -0.68115,1.356811 -0.67566,0.499878 -1.86218,0.499878 -0.49439,0 -1.03272,-0.09888 -0.53283,-0.09338 -1.1261,-0.285644 l 0,-1.043701 q 0.56031,0.291137 1.10413,0.439453 0.54382,0.142822 1.07666,0.142822 0.71411,0 1.09863,-0.241699 0.38452,-0.247193 0.38452,-0.692139 0,-0.411987 -0.28015,-0.631714 -0.27466,-0.219726 -1.21399,-0.422973 l -0.35156,-0.0824 q -0.93933,-0.197754 -1.35681,-0.604248 -0.41748,-0.411987 -0.41748,-1.126099 0,-0.86792 0.61523,-1.340332 0.61524,-0.472412 1.74683,-0.472412 0.5603,0 1.05469,0.0824 0.49438,0.0824 0.91186,0.247192 z"
       style="font-size:11.25px"
       id="path5363" />
    <path
       d="m 265.07198,66.953972 0,3.262939 -1.01624,0 0,-8.492431 1.01624,0 0,0.933838 q 0.3186,-0.549317 0.802,-0.812989 0.48889,-0.269165 1.16455,-0.269165 1.1206,0 1.81824,0.889893 0.70312,0.889892 0.70312,2.340088 0,1.450195 -0.70312,2.340088 -0.69764,0.889892 -1.81824,0.889892 -0.67566,0 -1.16455,-0.263672 -0.4834,-0.269165 -0.802,-0.818481 z m 3.43872,-2.147827 q 0,-1.115113 -0.46143,-1.746826 -0.45593,-0.637207 -1.25793,-0.637207 -0.80201,0 -1.26343,0.637207 -0.45593,0.631713 -0.45593,1.746826 0,1.115112 0.45593,1.752319 0.46142,0.631714 1.26343,0.631714 0.802,0 1.25793,-0.631714 0.46143,-0.637207 0.46143,-1.752319 z"
       style="font-size:11.25px"
       id="path5365" />
  </g>
  <g
     style="font-style:normal;font-weight:normal;font-size:25px;line-height:125%;font-family:sans-serif;letter-spacing:0px;word-spacing:0px;fill:#000000;fill-opacity:1;stroke:none;stroke-width:1px;stroke-linecap:butt;stroke-linejoin:miter;stroke-opacity:1"
     id="text5156">
    <path
       d="m 235.58467,78.48156 1.15906,0 0,1.395263 -1.15906,0 0,-1.395263 z"
       style="font-size:11.25px"
       id="path5348" />
    <path
       d="m 239.16621,78.48156 1.15906,0 0,1.395263 -1.15906,0 0,-1.395263 z"
       style="font-size:11.25px"
       id="path5350" />
    <path
       d="m 242.74776,78.48156 1.15905,0 0,1.395263 -1.15905,0 0,-1.395263 z"
       style="font-size:11.25px"
       id="path5352" />
  </g>
  <g
     style="font-style:normal;font-weight:normal;font-size:25px;line-height:125%;font-family:sans-serif;letter-spacing:0px;word-spacing:0px;fill:#000000;fill-opacity:1;stroke:none;stroke-width:1px;stroke-linecap:butt;stroke-linejoin:miter;stroke-opacity:1"
     id="text5216">
    <path
       d="m 234.97955,154.64502 1.01075,0 0,6.15234 -1.01075,0 0,-6.15234 z m 0,-2.39502 1.01075,0 0,1.27991 -1.01075,0 0,-1.27991 z"
       style="font-size:11.25px"
       id="path5335" />
    <path
       d="m 242.14813,155.57886 0,-3.32886 1.01074,0 0,8.54736 -1.01074,0 0,-0.92285 q -0.3186,0.54932 -0.80749,0.81848 -0.4834,0.26368 -1.16455,0.26368 -1.11512,0 -1.81824,-0.8899 -0.69763,-0.88989 -0.69763,-2.34009 0,-1.45019 0.69763,-2.34008 0.70312,-0.8899 1.81824,-0.8899 0.68115,0 1.16455,0.26917 0.48889,0.26367 0.80749,0.81299 z m -3.44421,2.14782 q 0,1.11512 0.45593,1.75232 0.46143,0.63172 1.26343,0.63172 0.802,0 1.26343,-0.63172 0.46142,-0.6372 0.46142,-1.75232 0,-1.11511 -0.46142,-1.74682 -0.46143,-0.63721 -1.26343,-0.63721 -0.802,0 -1.26343,0.63721 -0.45593,0.63171 -0.45593,1.74682 z"
       style="font-size:11.25px"
       id="path5337" />
    <path
       d="m 249.91547,162.66504 0,0.78552 -5.84473,0 0,-0.78552 5.84473,0 z"
       style="font-size:11.25px"
       id="path5339" />
    <path
       d="m 256.12823,157.46851 0,0.49438 -4.64721,0 q 0.0659,1.0437 0.62622,1.59302 0.56579,0.54382 1.57104,0.54382 0.58228,0 1.1261,-0.14282 0.54932,-0.14282 1.08765,-0.42847 l 0,0.95581 q -0.54382,0.23072 -1.11511,0.35157 -0.57129,0.12085 -1.15906,0.12085 -1.47217,0 -2.3346,-0.85694 -0.85693,-0.85693 -0.85693,-2.31811 0,-1.51062 0.81299,-2.39502 0.81848,-0.8899 2.20276,-0.8899 1.24145,0 1.96106,0.80201 0.72509,0.7965 0.72509,2.1698 z m -1.01074,-0.29664 q -0.011,-0.82946 -0.46692,-1.32385 -0.45044,-0.49438 -1.19751,-0.49438 -0.84594,0 -1.35681,0.4779 -0.50537,0.47791 -0.58227,1.34583 l 3.60351,-0.005 z"
       style="font-size:11.25px"
       id="path5341" />
    <path
       d="m 261.68732,154.82629 0,0.95581 q -0.42847,-0.21972 -0.8899,-0.32959 -0.46142,-0.10986 -0.95581,-0.10986 -0.75256,0 -1.13159,0.23071 -0.37353,0.23072 -0.37353,0.69214 0,0.35157 0.26916,0.55481 0.26917,0.19776 1.08216,0.37903 l 0.34606,0.0769 q 1.07666,0.23071 1.5271,0.65368 0.45594,0.41748 0.45594,1.17005 0,0.85693 -0.68116,1.35681 -0.67565,0.49988 -1.86218,0.49988 -0.49438,0 -1.03271,-0.0989 -0.53284,-0.0934 -1.1261,-0.28565 l 0,-1.0437 q 0.5603,0.29114 1.10412,0.43946 0.54383,0.14282 1.07666,0.14282 0.71412,0 1.09864,-0.2417 0.38452,-0.24719 0.38452,-0.69214 0,-0.41199 -0.28015,-0.63171 -0.27466,-0.21973 -1.21399,-0.42298 l -0.35156,-0.0824 q -0.93934,-0.19775 -1.35682,-0.60424 -0.41748,-0.41199 -0.41748,-1.1261 0,-0.86792 0.61524,-1.34033 0.61523,-0.47242 1.74682,-0.47242 0.56031,0 1.05469,0.0824 0.49439,0.0824 0.91187,0.24719 z"
       style="font-size:11.25px"
       id="path5343" />
    <path
       d="m 264.60968,159.87451 0,3.26294 -1.01624,0 0,-8.49243 1.01624,0 0,0.93384 q 0.3186,-0.54932 0.802,-0.81299 0.48889,-0.26917 1.16455,-0.26917 1.12061,0 1.81824,0.8899 0.70313,0.88989 0.70313,2.34008 0,1.4502 -0.70313,2.34009 -0.69763,0.8899 -1.81824,0.8899 -0.67566,0 -1.16455,-0.26368 -0.4834,-0.26916 -0.802,-0.81848 z m 3.43872,-2.14783 q 0,-1.11511 -0.46142,-1.74682 -0.45594,-0.63721 -1.25794,-0.63721 -0.802,0 -1.26343,0.63721 -0.45593,0.63171 -0.45593,1.74682 0,1.11512 0.45593,1.75232 0.46143,0.63172 1.26343,0.63172 0.802,0 1.25794,-0.63172 0.46142,-0.6372 0.46142,-1.75232 z"
       style="font-size:11.25px"
       id="path5345" />
  </g>
  <g
     style="font-style:normal;font-weight:normal;font-size:25px;line-height:125%;font-family:sans-serif;letter-spacing:0px;word-spacing:0px;fill:#000000;fill-opacity:1;stroke:none;stroke-width:1px;stroke-linecap:butt;stroke-linejoin:miter;stroke-opacity:1"
     id="text5266">
    <path
       d="m 15.534032,64.943848 1.159057,0 0,1.395263 -1.159057,0 0,-1.395263 z"
       style="font-size:11.25px"
       id="path5328" />
    <path
       d="m 19.115575,64.943848 1.159057,0 0,1.395263 -1.159057,0 0,-1.395263 z"
       style="font-size:11.25px"
       id="path5330" />
    <path
       d="m 22.697118,64.943848 1.159057,0 0,1.395263 -1.159057,0 0,-1.395263 z"
       style="font-size:11.25px"
       id="path5332" />
  </g>
  <g
     style="font-style:normal;font-weight:normal;font-size:25px;line-height:125%;font-family:sans-serif;letter-spacing:0px;word-spacing:0px;fill:#000000;fill-opacity:1;stroke:none;stroke-width:1px;stroke-linecap:butt;stroke-linejoin:miter;stroke-opacity:1"
     id="text5270">
    <path
       d="m 235.35352,170.57739 1.15905,0 0,1.39527 -1.15905,0 0,-1.39527 z"
       style="font-size:11.25px"
       id="path5321" />
    <path
       d="m 238.93506,170.57739 1.15906,0 0,1.39527 -1.15906,0 0,-1.39527 z"
       style="font-size:11.25px"
       id="path5323" />
    <path
       d="m 242.5166,170.57739 1.15906,0 0,1.39527 -1.15906,0 0,-1.39527 z"
       style="font-size:11.25px"
       id="path5325" />
  </g>
</svg>
